<svg xmlns="http://www.w3.org/2000/svg" width="1380" height="860">
    <g fill-rule="evenodd">
        <path d="M30.8 66.333c0 .289 6.731 4.226 13.6 7.955 1.21.657 2.92 1.606 3.8 2.11.88.503 2.41 1.365 3.4 1.914l3.6 2.002c.99.551 2.79 1.546 4 2.21 1.21.664 4.36 2.41 7 3.88A991.81 991.81 0 0077 92.352c.66.357 1.29.738 1.4.848.11.11.965.605 1.9 1.1l3.4 1.8c.935.495 1.79.99 1.9 1.1.11.11 1.19.718 2.4 1.352 1.958 1.025 14.357 7.895 18 9.973.77.439 2.3 1.283 3.4 1.875 1.1.592 2.72 1.49 3.6 1.995.88.505 2.365 1.343 3.3 1.862l3.5 1.943a603.874 603.874 0 008 4.39c1.54.83 2.98 1.648 3.2 1.817.22.169 1.57.929 3 1.69 1.43.76 3.32 1.798 4.2 2.305.88.507 2.5 1.406 3.6 1.998 1.1.592 2.72 1.483 3.6 1.98.88.497 3.4 1.902 5.6 3.123 2.2 1.22 5.35 2.976 7 3.901a690.956 690.956 0 009 4.948c.66.357 1.29.738 1.4.848.11.11 1.01.629 2 1.154 3.059 1.62 5.73 3.082 7.4 4.049.88.509 2.95 1.651 4.6 2.537 2.879 1.546 4 2.34 4 2.831 0 .39-44.611.256-45.02-.134-.209-.2-1.19-.811-2.18-1.357a3660.456 3660.456 0 00-11.4-6.266c-1.1-.6-2.72-1.506-3.6-2.014a168.9 168.9 0 00-3.6-2 168.9 168.9 0 01-3.6-2c-.88-.508-2.5-1.411-3.6-2.006-1.1-.595-4.77-2.637-8.157-4.538-3.386-1.901-6.207-3.456-6.268-3.456-.062 0-1.67-.9-3.575-2-1.905-1.1-3.531-2-3.614-2-.083 0-1.104-.567-2.268-1.26-1.165-.693-3.468-1.975-5.118-2.849-1.65-.874-3.18-1.721-3.4-1.882-.22-.161-1.66-.974-3.2-1.806-1.54-.833-4.15-2.272-5.8-3.2-5.694-3.199-7.007-3.929-9-5.002-1.1-.593-2.72-1.493-3.6-2.001a168.9 168.9 0 00-3.6-2 177.4 177.4 0 01-3.5-1.938c-2.939-1.689-4.162-2.369-9.1-5.062-4.803-2.619-5.911-3.235-9-5-.77-.44-2.03-1.157-2.8-1.593l-1.4-.793v10.587l1.9.987a98.103 98.103 0 013.7 2.046c.99.583 2.97 1.686 4.4 2.451 1.43.766 3.455 1.87 4.5 2.454 1.045.584 2.665 1.486 3.6 2.004.935.519 2.42 1.356 3.3 1.859.88.504 2.59 1.457 3.8 2.119 1.836 1.004 8.242 4.566 17.2 9.564.99.552 2.88 1.594 4.2 2.315a874.02 874.02 0 017.5 4.147 11444.73 11444.73 0 0018 10.005c3.61 1.991 5.306 2.938 6.9 3.853.88.505 2.5 1.405 3.6 1.999 7.459 4.029 9.532 5.33 9.131 5.731-.145.146-20.844.265-45.998.265H30v20.8h174.8V66h-18.2l.105 31.875c.064 19.484-.041 32.021-.271 32.251-.368.368-2.305-.605-9.934-4.988a177.4 177.4 0 00-3.5-1.938c-1.1-.592-2.72-1.49-3.6-1.995-2.547-1.462-11.808-6.603-18.597-10.324a216.978 216.978 0 01-4.521-2.554c-1.054-.62-1.991-1.127-2.082-1.127-.091 0-1.118-.567-2.282-1.26a140.276 140.276 0 00-4.518-2.545c-1.986-1.064-10.25-5.649-18.1-10.043-.935-.524-2.51-1.402-3.5-1.952-.99-.55-2.655-1.479-3.7-2.064a337.417 337.417 0 00-4.9-2.662c-1.65-.88-3.478-1.931-4.062-2.337-.584-.405-1.159-.737-1.278-.737-.12 0-1.262-.604-2.539-1.342a251.54 251.54 0 00-4.521-2.542c-3.403-1.856-6.084-3.347-7.4-4.117a178.79 178.79 0 00-3.6-2.005c-9.637-5.238-11.042-6.072-11.524-6.844-.502-.804-41.476-1.217-41.476-.417M255.2 120.4v54.4H430V154h-35.033c-27.846 0-35.001-.103-34.874-.5.14-.438 2.324-1.741 10.507-6.274 1.1-.61 2.72-1.522 3.6-2.027.88-.506 2.705-1.51 4.057-2.233a403.638 403.638 0 006.73-3.74c2.35-1.334 4.34-2.426 4.422-2.426.081 0 1.193-.606 2.47-1.346a314.89 314.89 0 014.221-2.4l3.7-2.054 3.6-2 3.7-2.054a314.89 314.89 0 004.221-2.4c1.277-.74 2.379-1.346 2.449-1.346.07 0 1.906-1.009 4.079-2.242a403.847 403.847 0 016.751-3.744c1.54-.827 3.384-1.843 4.097-2.259l1.298-.755.002-11.292.003-11.292-1.7.944c-.935.52-3.23 1.798-5.1 2.841-1.87 1.043-4.39 2.438-5.6 3.101a192.6 192.6 0 00-3.4 1.902c-.66.384-2.28 1.285-3.6 2.002-1.32.718-3.21 1.757-4.2 2.31-.99.553-2.52 1.383-3.4 1.845-.88.461-1.69.929-1.8 1.039-.11.11-.92.577-1.8 1.038-.88.462-2.32 1.252-3.2 1.757-1.835 1.053-3.786 2.139-7.2 4.008-1.32.723-3.631 2.008-5.136 2.856-1.505.847-2.827 1.541-2.938 1.541-.111 0-.68.332-1.264.737-.584.406-2.412 1.457-4.062 2.337-1.65.879-3.855 2.077-4.9 2.662-1.045.585-2.71 1.514-3.7 2.064-.99.55-2.655 1.476-3.7 2.059-12.188 6.791-15.449 8.605-17.5 9.732-1.32.726-3.21 1.772-4.2 2.325-.99.554-2.786 1.531-3.991 2.172-1.205.64-2.375 1.307-2.6 1.481-.225.174-1.399.851-2.609 1.506-1.21.654-5.021 2.75-8.468 4.657L317.664 154h-21.832c-13.225 0-21.832-.147-21.832-.373 0-.498 1.542-1.532 5.4-3.622 4.966-2.691 6.701-3.646 8-4.405.66-.386 2.01-1.148 3-1.694.99-.546 2.43-1.349 3.2-1.784.77-.435 3.02-1.658 5-2.716 1.98-1.059 3.78-2.057 4-2.22.422-.31 6.61-3.769 10-5.589 1.1-.59 2.72-1.489 3.6-1.997a168.9 168.9 0 013.6-2c1.1-.592 2.63-1.435 3.4-1.874 1.669-.952 14.789-8.246 18.2-10.119a1296.427 1296.427 0 007.6-4.207l3.6-2c.99-.55 2.565-1.429 3.5-1.954 9.29-5.216 19.26-10.646 19.546-10.646.195 0 .354-.138.354-.306 0-.168.675-.616 1.5-.995s2.31-1.17 3.3-1.756c.99-.587 2.7-1.553 3.8-2.147 4.334-2.341 6.894-3.759 9-4.989 1.21-.706 3.37-1.918 4.8-2.693 2.973-1.611 5.177-2.829 12-6.628.99-.551 2.79-1.542 4-2.202 1.21-.659 2.38-1.328 2.6-1.486.22-.157 1.768-1.025 3.44-1.928 11.069-5.977 11.124-5.67-1.007-5.67-6.726 0-9.833.135-9.833.429 0 .579-.757 1.252-2.2 1.957-.66.322-1.65.883-2.2 1.247-.55.364-2.44 1.421-4.2 2.349-1.76.928-3.38 1.825-3.6 1.994-.22.169-1.572.943-3.003 1.72-1.432.776-5.122 2.805-8.2 4.507a2018.181 2018.181 0 01-7.797 4.295c-1.21.66-2.74 1.516-3.4 1.901-.66.386-2.055 1.174-3.1 1.752a1642.2 1642.2 0 00-3.6 1.994 927.97 927.97 0 01-4.1 2.257c-1.32.722-3.75 2.07-5.4 2.994-1.65.925-4.8 2.681-7 3.901a1252.9 1252.9 0 00-5.6 3.123c-.88.497-2.5 1.388-3.6 1.98a168.9 168.9 0 00-3.6 2 151.11 151.11 0 01-3.791 2.088c-1.205.641-2.375 1.307-2.6 1.48-.225.174-1.669.998-3.209 1.831a799.27 799.27 0 00-6.2 3.405 832.695 832.695 0 01-5.6 3.084c-3.191 1.734-6.026 3.31-7.4 4.112-.66.386-2.055 1.173-3.1 1.751-1.045.577-2.71 1.499-3.7 2.049l-3.7 2.052a4387.541 4387.541 0 00-14.3 7.948l-3.7 2.058c-1.045.582-2.89 1.598-4.1 2.258-1.21.659-2.423 1.373-2.695 1.586-1.76 1.377-1.723 2.243-1.611-38.092L273.4 66h-18.2v54.4M30 235.6V246h34.776c21.688 0 34.866.144 35.013.382.315.51.499.397-12.889 7.869l-3.6 2.01c-1.045.584-2.8 1.546-3.9 2.139-2.649 1.427-5.095 2.79-10.4 5.791a482.008 482.008 0 01-7 3.888c-1.43.77-3.5 1.902-4.6 2.516a2768.03 2768.03 0 01-7.3 4.059 314.89 314.89 0 00-4.221 2.4c-1.277.74-2.379 1.346-2.449 1.346-.07 0-2.447 1.305-5.281 2.9-2.834 1.595-5.827 3.256-6.651 3.691l-1.498.791v11.309c0 10.701.104 11.821 1.02 10.946.209-.2 1.28-.859 2.38-1.465 1.1-.605 4.97-2.758 8.6-4.784s7.59-4.202 8.8-4.836c1.21-.634 2.29-1.242 2.4-1.352.11-.11.56-.395 1-.634l4-2.159c1.76-.949 3.678-2.059 4.262-2.467.584-.407 1.144-.74 1.245-.74.156 0 9.544-5.137 15.593-8.533 4.044-2.271 5.772-3.228 7.7-4.266 1.1-.593 2.72-1.491 3.6-1.996 5.087-2.92 15.06-8.405 15.282-8.405.107 0 .672-.336 1.256-.747s2.412-1.464 4.062-2.34c1.65-.876 3.72-2.005 4.6-2.509.88-.505 2.365-1.342 3.3-1.861a41475.955 41475.955 0 0121.614-11.993l1.714-.95h21.72c11.945 0 21.833.114 21.972.253.365.365-1.052 1.352-4.92 3.424a245.558 245.558 0 00-7.9 4.385 177.4 177.4 0 01-3.5 1.938 168.9 168.9 0 00-3.6 2 168.9 168.9 0 01-3.6 2c-1.1.592-2.72 1.49-3.6 1.995-3.948 2.266-15.102 8.44-18.6 10.295-1.43.759-2.78 1.518-3 1.687-.22.169-1.39.848-2.6 1.507-1.21.66-3.01 1.651-4 2.202-.99.552-2.88 1.594-4.2 2.317-1.32.722-3.75 2.071-5.4 2.996-6.129 3.438-7.044 3.947-9 5-1.1.593-2.72 1.493-3.6 2.001a168.9 168.9 0 01-3.6 2 177.4 177.4 0 00-3.5 1.938c-2.688 1.544-10.18 5.709-14.3 7.948-1.21.658-2.92 1.611-3.8 2.117-.88.506-2.5 1.405-3.6 1.997-1.1.592-2.72 1.49-3.6 1.995-1.785 1.024-3.645 2.06-7.2 4.011-1.32.724-4.258 2.369-6.53 3.656-2.271 1.286-4.192 2.338-4.268 2.338-.077 0-1.638.855-3.47 1.901-1.833 1.046-3.872 2.17-4.532 2.499-.66.329-1.29.689-1.4.799-.11.111-.92.588-1.8 1.061s-2.32 1.263-3.2 1.757a1556.363 1556.363 0 01-8 4.461c-6.674 3.699-6.915 3.522 4.8 3.522 7.613 0 9.8-.112 9.8-.504 0-.605 1.233-1.407 6.6-4.296 1.1-.592 2.63-1.435 3.4-1.874 1.997-1.138 15.272-8.518 18.6-10.339 1.54-.843 3.663-2.04 4.718-2.66 1.054-.62 1.991-1.127 2.082-1.127.091 0 1.028-.507 2.082-1.127 1.055-.62 3.178-1.817 4.718-2.66 1.54-.843 5.77-3.188 9.4-5.21 3.63-2.023 7.68-4.268 9-4.989 1.32-.722 2.94-1.628 3.6-2.013.66-.386 2.055-1.174 3.1-1.752a1642.2 1642.2 0 003.6-1.994c.935-.519 2.78-1.537 4.1-2.262 3.411-1.873 16.531-9.167 18.2-10.119.77-.439 2.3-1.282 3.4-1.874 1.1-.592 2.72-1.49 3.6-1.995.88-.505 2.32-1.319 3.2-1.808 4.629-2.576 16.287-9.03 18.2-10.076 1.21-.662 2.875-1.59 3.7-2.062 7.095-4.063 10.309-5.701 10.705-5.456.256.158.395 13.623.395 38.221V334h18V225.2H30v10.4m225.2 44V334h18.2l-.107-31.873c-.059-17.616.048-32.028.24-32.22.308-.308 2.48.696 6.267 2.897 1.786 1.037 4.918 2.768 7.391 4.084 1.205.64 2.375 1.307 2.6 1.48.225.174 1.669.999 3.209 1.833 4.196 2.274 22.648 12.511 25.6 14.203.88.504 2.95 1.633 4.6 2.509 1.65.876 3.478 1.929 4.062 2.34.584.411 1.156.747 1.272.747.115 0 3.147 1.639 6.738 3.642a3009.514 3009.514 0 0012.628 7.013c3.307 1.838 5.32 2.956 7 3.888a2477.062 2477.062 0 0010.3 5.735l7.8 4.328c1.1.611 2.99 1.65 4.2 2.31 1.21.659 2.38 1.328 2.6 1.486.22.157 1.84 1.048 3.6 1.98 1.76.932 3.596 2.128 4.081 2.656l.881.962h20.419c11.23 0 20.419-.143 20.419-.317 0-.293-2.353-1.74-6.8-4.181-.99-.544-2.52-1.402-3.4-1.907-1.708-.981-4.473-2.491-7.4-4.041-.99-.525-1.86-1.089-1.933-1.254a.546.546 0 00-.455-.3c-.286 0-10.275-5.471-22.612-12.383-.88-.494-2.32-1.284-3.2-1.757-.88-.473-1.69-.95-1.8-1.06-.11-.11-1.19-.717-2.4-1.349s-3.01-1.604-4-2.159c-.99-.554-2.79-1.55-4-2.213a637.779 637.779 0 01-5.306-2.952 785.662 785.662 0 00-4.9-2.738c-3.398-1.873-5.198-2.878-6.794-3.794-.88-.505-2.5-1.403-3.6-1.995-1.1-.592-2.72-1.49-3.6-1.995-.88-.505-2.41-1.366-3.4-1.913L338 282.6l-5.6-3.092c-.99-.547-2.52-1.408-3.4-1.913-.88-.505-2.5-1.403-3.6-1.995a168.9 168.9 0 01-3.6-2 168.9 168.9 0 00-3.6-2c-1.1-.592-2.63-1.435-3.4-1.873-.77-.439-4.28-2.387-7.8-4.33a1997.96 1997.96 0 01-7.7-4.265c-3.028-1.705-4.39-2.461-5.9-3.272-.88-.473-1.69-.95-1.8-1.061-.11-.11-.74-.47-1.4-.799-.66-.329-2.699-1.453-4.532-2.499-1.832-1.046-3.387-1.901-3.456-1.901-.959 0-8.707-4.972-8.332-5.347.405-.405 44.314-.297 44.74.11.209.2 1.235.83 2.28 1.4a597.25 597.25 0 013.8 2.095 645.39 645.39 0 004.1 2.259c1.21.66 3.37 1.873 4.8 2.696 1.43.823 3.77 2.119 5.2 2.881 1.43.762 3.32 1.801 4.2 2.308.88.507 2.5 1.406 3.6 1.998 1.1.592 2.63 1.435 3.4 1.874 2.507 1.429 15.727 8.767 18.6 10.324 1.54.835 2.98 1.657 3.2 1.826.22.169 1.84 1.066 3.6 1.994 1.76.928 3.65 1.985 4.2 2.349.55.364 1.54.925 2.2 1.247.66.321 3.45 1.859 6.2 3.418 2.75 1.558 6.44 3.614 8.2 4.569 1.76.954 3.83 2.09 4.6 2.524.77.433 2.165 1.213 3.1 1.732 2.999 1.664 5.252 2.916 7.2 4.002l17 9.469 1.9 1.056v-10.612l-2.5-1.278c-1.375-.703-3.22-1.7-4.1-2.217-1.712-1.005-5.151-2.918-8.4-4.673a194.6 194.6 0 01-3.6-1.999c-2.04-1.171-2.901-1.65-14-7.803-5.06-2.805-9.965-5.528-10.9-6.051a1445.45 1445.45 0 00-3.4-1.895l-3.7-2.056c-1.1-.611-2.81-1.56-3.8-2.108a5591.616 5591.616 0 01-14.8-8.218c-.77-.433-2.165-1.212-3.1-1.731l-3.4-1.886a371.343 371.343 0 01-3.2-1.8c-3.165-1.808-4.21-2.386-7.7-4.258-4.04-2.167-5.493-3.173-5.12-3.546.139-.139 20.833-.253 45.987-.253H430v-20.8H255.2v54.4M5 0h20v20H5zm430 0h20v20h-20z" fill="#f2f2f3"/>
        <path d="M532.4 66.338c0 .426 1.049 1.281 2.6 2.119.66.357 6.15 3.399 12.2 6.76 6.05 3.361 11.81 6.555 12.8 7.097.99.541 2.34 1.301 3 1.687.66.385 2.28 1.289 3.6 2.008 1.32.719 5.55 3.059 9.4 5.201 3.85 2.142 7.855 4.366 8.9 4.942a540.643 540.643 0 016.9 3.848 447.958 447.958 0 007.2 4.003c1.32.723 4.56 2.523 7.2 4.001 2.64 1.477 5.79 3.225 7 3.883 3.241 1.763 6.041 3.319 7.4 4.113.66.386 2.01 1.144 3 1.686.99.542 5.116 2.831 9.17 5.087 11.597 6.454 13.092 7.231 13.37 6.954.143-.143.26-14.54.26-31.994V66h-57c-31.35 0-57 .152-57 .338M733.6 104c0 25.035.136 38 .4 38 .329 0 6.506-3.347 16.7-9.049 1.583-.886 2.584-1.442 7-3.895 2.914-1.619 5.53-3.079 10.5-5.86a891.04 891.04 0 017-3.883c3.253-1.769 6.045-3.321 7.4-4.114.66-.385 2.28-1.289 3.6-2.008 1.32-.719 7.17-3.959 13-7.201 5.83-3.241 11.455-6.365 12.5-6.942l3.8-2.096c1.045-.576 5.05-2.8 8.9-4.942 3.85-2.142 8.08-4.482 9.4-5.201 1.32-.719 2.94-1.623 3.6-2.008 1.109-.649 2.03-1.163 7-3.906.99-.547 2.34-1.31 3-1.696.66-.385 2.19-1.241 3.4-1.901 1.21-.66 4.9-2.694 8.2-4.52 3.3-1.826 6.675-3.681 7.5-4.123.825-.442 1.891-1.22 2.37-1.729l.869-.926H733.6v38M490 128.008V153.6h45.624c27.104 0 45.532-.147 45.4-.362-.221-.357-1.757-1.262-7.224-4.257a647.873 647.873 0 01-6.551-3.657c-2.063-1.168-3.809-2.124-3.879-2.124-.07 0-1.172-.606-2.449-1.346a314.89 314.89 0 00-4.221-2.4L553 137.4l-3.6-2-3.7-2.059a4518.706 4518.706 0 00-18.1-10.025 287.681 287.681 0 01-3.671-2.034c-2.319-1.318-22.667-12.623-25.329-14.073-1.32-.719-2.94-1.623-3.6-2.008-.66-.386-2.055-1.171-3.1-1.744l-1.9-1.041v25.592m398.12-12.425c-.703.429-2.683 1.524-4.4 2.433-1.716.909-3.3 1.791-3.52 1.96-.22.169-1.66.99-3.2 1.823-1.54.833-6.76 3.713-11.6 6.399s-10.06 5.566-11.6 6.401c-1.54.834-2.98 1.645-3.2 1.801-.22.156-1.66.967-3.2 1.802-3.969 2.152-16.962 9.392-22.4 12.482-1.32.75-2.703 1.46-3.072 1.579-.37.119-.769.468-.888.776-.183.479 4.873.561 34.373.561H890v-19.4c0-10.67-.135-19.399-.3-19.399-.165.001-.876.353-1.58.782M490 265.8c0 19.803.041 20.355 1.42 19.037.209-.2 1.19-.805 2.18-1.345.99-.54 2.88-1.568 4.2-2.286 1.32-.717 2.94-1.62 3.6-2.005.66-.386 2.1-1.196 3.2-1.8 1.1-.603 5.15-2.851 9-4.994 3.85-2.143 8.26-4.578 9.8-5.41 1.54-.832 2.98-1.641 3.2-1.797.22-.156 1.57-.919 3-1.696 1.43-.777 7.732-4.268 14.004-7.758 6.272-3.491 12.255-6.794 13.294-7.342 3.919-2.066 4.918-2.004-32.311-2.004H490v19.4m308.98-19.032c.208.336 1.594 1.152 7.22 4.249 1.1.605 3.44 1.914 5.2 2.908 1.76.995 4.19 2.342 5.4 2.995 1.21.652 2.74 1.5 3.4 1.884.66.383 2.01 1.144 3 1.691.99.546 2.7 1.494 3.8 2.105l3.7 2.056 3.5 1.944 3.6 2c.99.55 2.655 1.472 3.7 2.049 1.045.578 2.44 1.364 3.1 1.747.66.383 2.46 1.379 4 2.212 1.54.834 5.59 3.079 9 4.989 3.41 1.91 7.28 4.069 8.6 4.796 1.32.728 5.55 3.075 9.4 5.217 6.535 3.635 7.884 4.383 12.6 6.982l1.8.992V246.4h-45.624c-27.63 0-45.534.145-45.396.368m-154 11.58c-.209.191-1.82 1.117-3.58 2.057s-4.37 2.379-5.8 3.198c-1.43.818-3.68 2.078-5 2.798-1.32.72-3.12 1.71-4 2.199l-3.6 2-3.6 2c-.88.489-2.41 1.342-3.4 1.896-5.266 2.947-16.134 8.976-18.4 10.207-1.43.777-2.78 1.541-3 1.697-.22.156-1.66.966-3.2 1.8-1.54.834-7.66 4.219-13.6 7.522-5.94 3.304-11.61 6.452-12.6 6.996a260.72 260.72 0 00-4.121 2.336c-1.277.74-2.393 1.346-2.479 1.346-.086 0-1.202.606-2.479 1.346-2.45 1.42-4.655 2.646-8.921 4.96-1.43.776-2.78 1.539-3 1.696-.22.157-1.84 1.062-3.6 2.01-1.76.948-3.83 2.079-4.6 2.513-.77.433-2.165 1.213-3.1 1.732l-3.4 1.886c-.935.519-2.33 1.299-3.1 1.732-.77.434-4.28 2.382-7.8 4.33-6.467 3.578-7.8 4.443-7.8 5.057 0 .186 30.51.338 67.8.338h67.8v-38c0-39.034.003-38.955-1.42-37.652m88.885 11.92c-.146.146-.265 14.545-.265 31.999V334h57c31.35 0 57-.152 57-.338 0-.351-1.312-1.662-1.664-1.662-.11 0-3.596-1.89-7.745-4.2-4.15-2.31-7.591-4.2-7.647-4.2-.056 0-1.146-.606-2.423-1.346a314.89 314.89 0 00-4.221-2.4 8806.595 8806.595 0 00-14.5-8.052c-5.06-2.805-9.965-5.528-10.9-6.051-.935-.523-2.51-1.401-3.5-1.951l-3.6-2-3.7-2.059c-5.338-2.975-12.571-6.978-14.7-8.135a178.79 178.79 0 01-3.6-2.005c-.66-.386-2.01-1.149-3-1.696-4.97-2.743-5.891-3.257-7-3.906a178.76 178.76 0 00-3.4-1.904c-1.21-.662-4.72-2.596-7.8-4.298-3.08-1.703-6.41-3.542-7.4-4.088-.99-.546-2.896-1.603-4.235-2.349-1.34-.746-2.555-1.237-2.7-1.092M465 0h20v20h-20zm430 0h20v20h-20z" fill="#0655b4"/>
        <path d="M1125.2 121v54.2H950v49.6h175.2v108.4h49.6V224.8H1350v-49.6h-175.2V66.8h-49.6V121M950.003 79.1l.003 11.9.897.44c1.687.829 4.497 2.36 4.697 2.56.11.11.92.574 1.8 1.031.88.457 4.84 2.634 8.8 4.837 3.96 2.204 8.28 4.6 9.6 5.325 3.456 1.898 5.381 2.969 7.2 4.007.88.502 2.365 1.338 3.3 1.857l3.5 1.943c4.2 2.333 5.43 3.012 9.8 5.41 4.756 2.609 6.145 3.384 8.7 4.852.825.473 2.22 1.238 3.1 1.7.88.461 1.69.928 1.8 1.038.11.11 1.01.629 2 1.154 3.318 1.757 7.072 3.832 14.2 7.848 2.42 1.363 5.57 3.107 7 3.876 1.43.769 3.32 1.814 4.2 2.322.88.508 2.5 1.408 3.6 2 1.1.592 2.72 1.49 3.6 1.995 2.167 1.243 4.366 2.463 11.441 6.344l3.04 1.668 21.16-.103L1104.6 153l-4.6-2.568c-5.525-3.084-6.741-3.768-8.7-4.894a177.4 177.4 0 00-3.5-1.938 168.9 168.9 0 01-3.6-2c-.88-.508-2.5-1.41-3.6-2.004-3.952-2.135-6.839-3.735-9.121-5.054-1.277-.738-2.393-1.342-2.479-1.342-.086 0-1.202-.606-2.479-1.346-2.978-1.726-5.898-3.354-7.921-4.415-.88-.461-1.69-.929-1.8-1.039-.11-.11-.92-.578-1.8-1.039-2.023-1.061-4.943-2.689-7.921-4.415-1.277-.74-2.389-1.346-2.47-1.346-.082 0-2.008-1.052-4.279-2.338a562.701 562.701 0 00-10.13-5.614c-.66-.357-1.29-.738-1.4-.848-.11-.11-1.19-.717-2.4-1.349-2.059-1.076-3.361-1.789-6.8-3.726-.77-.434-4.28-2.379-7.8-4.322-6.503-3.589-7.828-4.33-10.5-5.865a177.4 177.4 0 00-3.5-1.938 168.9 168.9 0 01-3.6-2c-.88-.508-2.5-1.41-3.6-2.004-3.952-2.135-6.839-3.735-9.121-5.054-1.277-.738-2.393-1.342-2.479-1.342-.086 0-1.202-.606-2.479-1.346-2.978-1.726-5.898-3.354-7.921-4.415-.88-.461-1.69-.929-1.8-1.039-.11-.11-.92-.577-1.8-1.038-.88-.462-2.23-1.196-3-1.632-.77-.437-2.84-1.577-4.6-2.533a220.467 220.467 0 01-5.118-2.868c-1.054-.621-1.999-1.129-2.1-1.129-.1 0-.181 5.355-.179 11.9m398.977-11.537c-.209.2-1.235.83-2.28 1.4-1.045.57-2.755 1.514-3.8 2.098-1.045.583-2.62 1.438-3.5 1.9-.88.461-1.69.929-1.8 1.039-.11.11-.92.577-1.8 1.038-.88.462-2.32 1.254-3.2 1.762-.88.508-2.5 1.408-3.6 2.001-1.1.592-2.81 1.533-3.8 2.09-4.483 2.524-14.723 8.167-15.804 8.708-.658.33-1.286.69-1.396.8-.11.111-.92.578-1.8 1.039-.88.462-2.275 1.227-3.1 1.7a438.62 438.62 0 01-10.1 5.665c-1.32.722-3.75 2.071-5.4 2.997-1.65.926-4.08 2.275-5.4 2.997-1.32.723-3.21 1.766-4.2 2.319-.99.553-2.52 1.383-3.4 1.845-.88.461-1.69.929-1.8 1.039-.11.11-.92.577-1.8 1.038-.88.462-2.275 1.227-3.1 1.7-2.95 1.695-4.167 2.372-9.1 5.062-5.323 2.903-6.363 3.483-9.2 5.135a82.14 82.14 0 01-4 2.137c-1.21.6-2.29 1.189-2.4 1.309-.11.121-.92.606-1.8 1.079-1.494.803-2.683 1.462-5.9 3.271-.715.402-3.91 2.178-7.1 3.947-3.19 1.769-6.7 3.718-7.8 4.331-1.1.612-2.9 1.598-4 2.19-1.1.593-2.72 1.491-3.6 1.996-.88.505-2.41 1.365-3.4 1.911-.99.546-2.34 1.308-3 1.694-.66.386-2.01 1.144-3 1.686-.99.542-3.24 1.779-5 2.75l-3.2 1.764 21.159.104 21.16.103 3.04-1.668c7.075-3.881 9.274-5.101 11.441-6.344 1.708-.981 4.473-2.491 7.4-4.041.99-.525 1.89-1.044 2-1.154.11-.11.92-.587 1.8-1.06.88-.473 2.32-1.264 3.2-1.757.88-.493 2.32-1.292 3.2-1.776.88-.483 3.31-1.829 5.4-2.991 5.133-2.853 7.462-4.13 9.6-5.262.99-.525 1.89-1.044 2-1.154.11-.11.92-.577 1.8-1.038.88-.462 2.32-1.254 3.2-1.762.88-.508 2.5-1.413 3.6-2.01 1.1-.598 3.44-1.89 5.2-2.871 1.76-.982 4.19-2.329 5.4-2.994a727.75 727.75 0 004-2.217c.99-.555 2.79-1.527 4-2.159 1.21-.632 2.29-1.239 2.4-1.349.241-.241 1.52-.976 4.2-2.412 2.55-1.367 5.817-3.183 10.551-5.864 2.063-1.168 3.804-2.124 3.869-2.124.064 0 1.616-.865 3.448-1.923 1.833-1.058 3.917-2.182 4.632-2.498.715-.316 1.3-.71 1.3-.877 0-.166.345-.302.767-.302.421 0 .826-.135.9-.3.167-.376 2.297-1.675 3.233-1.971.646-.205.7-1.143.7-12.176 0-11.308-.102-12.467-1.02-11.59M1060.6 247.74c-3.226 1.826-10.055 5.617-12 6.662-1.1.591-2.72 1.49-3.6 1.998a168.9 168.9 0 01-3.6 2c-1.1.592-2.72 1.49-3.6 1.995-.88.505-2.365 1.343-3.3 1.862l-3.4 1.886c-.935.519-2.33 1.297-3.1 1.73-4.957 2.782-13.326 7.382-15.8 8.685-.88.463-1.69.932-1.8 1.042-.11.11-.92.587-1.8 1.06-1.51.811-2.872 1.567-5.9 3.272-.715.403-4.18 2.322-7.7 4.265-3.52 1.943-7.03 3.891-7.8 4.33-.77.438-2.3 1.281-3.4 1.873a168.9 168.9 0 00-3.6 2 168.9 168.9 0 01-3.6 2c-1.1.592-2.953 1.644-4.118 2.338-1.164.694-2.179 1.262-2.254 1.262-.075 0-2.182 1.14-4.682 2.534-2.5 1.394-5.536 3.077-6.746 3.741-1.21.663-3.01 1.685-4 2.271-.99.585-2.475 1.374-3.3 1.753l-1.5.69v11.905c0 11.262.1 12.398 1.02 11.56.209-.191 1.37-.884 2.58-1.542s3.01-1.65 4-2.204c.99-.555 2.79-1.527 4-2.159 1.21-.632 2.29-1.239 2.4-1.349.241-.241 1.52-.976 4.2-2.412 2.253-1.208 5.3-2.886 10-5.507 1.76-.981 4.1-2.273 5.2-2.871 1.1-.597 2.72-1.502 3.6-2.01a168.9 168.9 0 013.6-2 168.9 168.9 0 003.6-2 151.11 151.11 0 013.791-2.088c1.205-.641 2.375-1.308 2.6-1.482.225-.175 1.849-1.089 3.609-2.032 4.386-2.349 6.468-3.498 7.513-4.147.818-.507 4.182-2.34 8.087-4.405.88-.465 1.69-.936 1.8-1.046.11-.11.92-.577 1.8-1.038.88-.462 2.275-1.227 3.1-1.7 2.432-1.397 3.763-2.14 10.5-5.859 3.52-1.943 7.03-3.891 7.8-4.33.77-.438 2.3-1.281 3.4-1.873a168.9 168.9 0 003.6-2c.88-.508 2.32-1.3 3.2-1.762.88-.461 1.69-.928 1.8-1.038.11-.11.92-.578 1.8-1.039 1.693-.888 3.49-1.878 9-4.957 1.87-1.045 4.39-2.437 5.6-3.093 1.21-.656 2.92-1.607 3.8-2.114.88-.506 2.32-1.297 3.2-1.759.88-.461 1.69-.928 1.8-1.038.11-.11.92-.579 1.8-1.042a333.81 333.81 0 008-4.413c.88-.505 3.985-2.228 6.899-3.831 2.915-1.603 5.3-3.049 5.3-3.214.001-.165-9.404-.292-20.899-.283l-20.9.017-1.6.906m135-.775c0 .091 3.555 2.139 7.9 4.55 7.892 4.381 9.578 5.326 12.4 6.947a177.4 177.4 0 003.5 1.938c1.1.592 2.72 1.491 3.6 1.997.88.506 2.59 1.458 3.8 2.114 1.21.656 3.73 2.048 5.6 3.093 5.51 3.079 7.307 4.069 9 4.957.88.461 1.69.929 1.8 1.039.11.11.92.577 1.8 1.038.88.462 2.32 1.254 3.2 1.762.88.508 2.5 1.408 3.6 2.001 1.1.592 2.81 1.532 3.8 2.089 1.509.849 13.172 7.338 18 10.014.77.427 2.12 1.163 3 1.636.88.473 1.69.95 1.8 1.06.11.11 1.01.628 2 1.152 5.71 3.02 7.843 4.179 8.2 4.455.43.333 2.155 1.289 7.2 3.991 1.76.943 3.38 1.843 3.6 2 .22.158 1.39.826 2.6 1.485 1.21.66 2.92 1.614 3.8 2.12.88.506 2.5 1.405 3.6 1.997a168.9 168.9 0 013.6 2c.88.508 2.5 1.408 3.6 2.001 2.504 1.348 5.632 3.084 7.2 3.995 1.195.695 4.195 2.344 8 4.4a194.6 194.6 0 013.6 1.999c.88.505 2.365 1.343 3.3 1.862.935.518 2.555 1.419 3.6 2.001a565.6 565.6 0 004.1 2.254c1.21.658 2.371 1.351 2.58 1.542.92.838 1.02-.298 1.017-11.554l-.003-11.9-.897-.441c-1.072-.528-4.598-2.442-7.097-3.853-5.011-2.83-12.111-6.706-12.282-6.706-.107 0-.672-.333-1.256-.739-1.016-.707-4.044-2.419-7.462-4.219-.88-.463-1.69-.932-1.8-1.042-.11-.11-1.145-.696-2.299-1.301-1.155-.606-6.015-3.286-10.8-5.955-4.786-2.67-9.601-5.342-10.701-5.937a186.77 186.77 0 01-3.6-2.007c-.88-.508-2.5-1.41-3.6-2.004-4.222-2.28-6.815-3.722-7.2-4.003-.22-.16-2.65-1.513-5.4-3.006-4.907-2.663-6.088-3.319-9.1-5.049-.825-.473-2.22-1.238-3.1-1.7-.88-.461-1.69-.928-1.8-1.038-.11-.11-1.01-.629-2-1.154a356.577 356.577 0 01-7.6-4.14c-.99-.558-4.583-2.566-7.984-4.461l-6.185-3.445h-21.115c-11.614 0-21.116.074-21.116.165M925 0h20v20h-20zm430 0h20v20h-20z" fill="#db0424"/>
        <path d="M205.2 526.4c0 .262 8.533.4 24.8.4 16.267 0 24.8-.138 24.8-.4s-8.533-.4-24.8-.4c-16.267 0-24.8.138-24.8.4m222.883 1.257c-.724.463-1.233.926-1.131 1.028.102.103.872-.28 1.71-.849 1.817-1.235 1.313-1.391-.579-.179M30.8 527.39c0 .104.585.475 1.3.824l1.3.634-1-.815c-.963-.785-1.6-1.041-1.6-.643m2.8 1.576c0 .269 3.707 2.261 3.882 2.086.088-.088-.682-.631-1.712-1.206-1.907-1.066-2.17-1.173-2.17-.88m391.5.463c-1.495.811-1.404 1.149.1.371.66-.341 1.2-.706 1.2-.81 0-.258-.043-.243-1.3.439M38 531.379c0 .11.54.48 1.2.821.66.341 1.2.531 1.2.421 0-.11-.54-.48-1.2-.821-.66-.341-1.2-.531-1.2-.421m382.7.45c-.605.328-1.1.681-1.1.784 0 .386.632.144 1.6-.613 1.189-.93 1.011-.991-.5-.171m-377.5 2.538c.963.785 1.6 1.041 1.6.643 0-.104-.585-.475-1.3-.824l-1.3-.634 1 .815m370.3 1.462c-.605.328-1.1.681-1.1.784 0 .386.632.144 1.6-.613 1.189-.93 1.011-.991-.5-.171m-3.6 2.048c-1.044.581-1.831 1.126-1.747 1.21.168.167 3.02-1.346 3.627-1.925.619-.59.133-.405-1.88.715m-359.5.487c.55.45 1.18.819 1.4.821.428.003-.295-.551-1.6-1.225-.531-.275-.464-.139.2.404m2 .974c0 .197 5.738 3.508 6.591 3.803.809.28-1.244-1.046-3.891-2.513-1.485-.823-2.7-1.404-2.7-1.29m353.8.591c-.66.376-2.595 1.458-4.3 2.405-1.705.947-3.1 1.815-3.1 1.928 0 .114 1.215-.47 2.7-1.297s3.33-1.849 4.1-2.272c1.305-.716 2.391-1.522 1.98-1.47-.099.013-.72.33-1.38.706M62 544.822c1.033.704 3.6 2.003 3.6 1.82 0-.209-3.595-2.245-3.95-2.236-.138.003.02.19.35.416m332.898 1.351c-1.595.933-3.035 1.845-3.2 2.025-.355.391 5.931-2.961 6.482-3.456.878-.79-.548-.168-3.282 1.431M68.4 548.367c.963.785 1.6 1.041 1.6.643 0-.104-.585-.475-1.3-.824l-1.3-.634 1 .815m-38.367 2.982c.092.082.797.453 1.567.824l1.4.675-1-.815c-.786-.641-2.638-1.285-1.967-.684m397.967.684l-1 .815 1.4-.675c1.712-.825 1.894-.976 1.167-.964-.312.005-1.017.376-1.567.824m-352.4.334c.963.785 1.6 1.041 1.6.643 0-.104-.585-.475-1.3-.824l-1.3-.634 1 .815m308.2.033c-.66.437-1.02.792-.8.788.401-.006 2.576-1.565 2.2-1.576-.11-.004-.74.351-1.4.788m-2.7 1.429c-.605.328-1.1.681-1.1.784 0 .386.632.144 1.6-.613 1.189-.93 1.011-.991-.5-.171m-301.1.935c.55.45 1.18.819 1.4.821.428.003-.295-.551-1.6-1.225-.531-.275-.464-.139.2.404m297.622 1.062c-.979.559-2.959 1.663-4.4 2.453-5.142 2.816-6.822 3.8-6.822 3.994 0 .108 1.125-.431 2.5-1.196a995.948 995.948 0 018.2-4.514c1.765-.963 2.902-1.769 2.48-1.758-.099.002-.98.462-1.958 1.021m-294.822.541c.963.785 1.6 1.041 1.6.643 0-.104-.585-.475-1.3-.824l-1.3-.634 1 .815m-42.8.4c.963.785 1.6 1.041 1.6.643 0-.104-.585-.475-1.3-.824l-1.3-.634 1 .815m378.304.575c-2.952 1.693-3.49 2.252-.904.938 1.886-.958 3.839-2.254 3.4-2.255-.11-.001-1.233.592-2.496 1.317M85 557.484c.22.225 1.66 1.091 3.2 1.925 1.54.834 2.62 1.332 2.4 1.107-.22-.225-1.66-1.091-3.2-1.925-1.54-.834-2.62-1.332-2.4-1.107m-43 .295c0 .11.54.48 1.2.821.66.341 1.2.531 1.2.421 0-.11-.54-.48-1.2-.821-.66-.341-1.2-.531-1.2-.421m5.2 2.988c.963.785 1.6 1.041 1.6.643 0-.104-.585-.475-1.3-.824l-1.3-.634 1 .815m365.1-.138c-.605.328-1.1.681-1.1.784 0 .386.632.144 1.6-.613 1.189-.93 1.011-.991-.5-.171m-321.1.364c0 .107.9.65 2 1.207 2.515 1.275 2.621 1.016.15-.366-1.923-1.074-2.15-1.163-2.15-.841m-42 .738c0 .174 1.633 1.131 6.6 3.869 5.326 2.936 6.747 3.668 6.4 3.299-.22-.234-1.255-.892-2.3-1.462a995.948 995.948 0 01-8.2-4.514c-1.375-.765-2.5-1.302-2.5-1.192m358.254 1.672c-1.73.988-3.26 1.801-3.4 1.806-.14.005-.704.377-1.254.827-.745.609-.49.545 1-.251 5.546-2.965 7.588-4.202 6.9-4.182-.055.002-1.516.812-3.246 1.8m-43.778.08c-.948.552-1.65 1.076-1.56 1.166.176.177 3.884-1.811 3.884-2.083 0-.32-.615-.077-2.324.917M95.6 563.379c0 .11.54.48 1.2.821.66.341 1.2.531 1.2.421 0-.11-.54-.48-1.2-.821-.66-.341-1.2-.531-1.2-.421m264.7 2.05c-1.495.811-1.404 1.149.1.371.66-.341 1.2-.706 1.2-.81 0-.258-.043-.243-1.3.439m39.3 2.236c-2.031 1.173-2.481 1.768-.6.794 2.014-1.042 2.916-1.653 2.4-1.624-.22.012-1.03.386-1.8.83m-296.8-.324c0 .267 3.69 2.302 3.863 2.13.077-.078-.76-.632-1.861-1.231-1.101-.6-2.002-1.004-2.002-.899m253.1.488c-.605.328-1.1.681-1.1.784 0 .386.632.144 1.6-.613 1.189-.93 1.011-.991-.5-.171M62.8 569.39c0 .104.585.475 1.3.824l1.3.634-1-.815c-.963-.785-1.6-1.041-1.6-.643m47.2 1.951c0 .267 3.69 2.302 3.863 2.13.077-.078-.76-.632-1.861-1.231-1.101-.6-2.002-1.004-2.002-.899m238.2.807a523.792 523.792 0 01-8.9 4.949c-1.375.746-2.5 1.451-2.5 1.566 0 .188 4.108-1.949 8.1-4.212a647.72 647.72 0 013-1.689c1.411-.788 2.481-1.583 2.08-1.545-.099.009-.9.428-1.78.931m-281-.369c0 .11.54.48 1.2.821.66.341 1.2.531 1.2.421 0-.11-.54-.48-1.2-.821-.66-.341-1.2-.531-1.2-.421m324.3.45c-1.495.811-1.404 1.149.1.371.66-.341 1.2-.706 1.2-.81 0-.258-.043-.243-1.3.439M70 573.39c0 .104.585.475 1.3.824l1.3.634-1-.815c-.963-.785-1.6-1.041-1.6-.643m318.4.643l-1 .815 1.3-.634c.715-.349 1.3-.72 1.3-.824 0-.398-.637-.142-1.6.643M117 575.296c1.263.915 6.2 3.595 6.2 3.366 0-.113-1.391-.984-3.091-1.934-3.356-1.876-4.363-2.34-3.109-1.432m-42.6.442c0 .106 1.215.87 2.7 1.697 8.264 4.602 10.759 5.892 9.7 5.013-.55-.457-1.125-.834-1.279-.839-.153-.005-1.323-.611-2.6-1.347-4.282-2.469-8.521-4.72-8.521-4.524m307 2.096c-2.2 1.216-4.18 2.403-4.4 2.638-.22.235.5-.064 1.6-.665 4.868-2.657 7-3.887 7-4.041 0-.257.038-.275-4.2 2.068m-46.6 1.799l-1 .815 1.3-.634c.715-.349 1.3-.72 1.3-.824 0-.398-.637-.142-1.6.643m39.6 2.032c-2.031 1.173-2.481 1.768-.6.794 2.014-1.042 2.916-1.653 2.4-1.624-.22.012-1.03.386-1.8.83m-246.4-.286c0 .11.54.48 1.2.821.66.341 1.2.531 1.2.421 0-.11-.54-.48-1.2-.821-.66-.341-1.2-.531-1.2-.421m202.7.45c-.605.328-1.1.681-1.1.784 0 .386.632.144 1.6-.613 1.189-.93 1.011-.991-.5-.171m-2.8 1.6c-.605.328-1.1.681-1.1.784 0 .386.632.144 1.6-.613 1.189-.93 1.011-.991-.5-.171m-239.5.191c1.387.941 2.178 1.215 1.2.416-.55-.45-1.18-.819-1.4-.821-.22-.002-.13.181.2.405m282 .413l-1 .815 1.3-.634c.715-.349 1.3-.72 1.3-.824 0-.398-.637-.142-1.6.643m-237.2.334c.963.785 1.6 1.041 1.6.643 0-.104-.585-.475-1.3-.824l-1.3-.634 1 .815m3.603 1.91c.003.329 2.042 1.411 2.256 1.198.064-.064-.418-.433-1.071-.819-.654-.386-1.187-.556-1.185-.379m183.097 1.6c-1.044.581-1.837 1.12-1.76 1.196.16.161 3.86-1.859 3.86-2.107 0-.251-.057-.226-2.1.911m-224.7-.487c0 .104.585.475 1.3.824l1.3.634-1-.815c-.963-.785-1.6-1.041-1.6-.643m268 .643l-1 .815 1.3-.634c.715-.349 1.3-.72 1.3-.824 0-.398-.637-.142-1.6.643m-222.8.331c.55.45 1.18.819 1.4.821.428.003-.295-.551-1.6-1.225-.531-.275-.464-.139.2.404m2 .977c0 .176 1.993 1.334 7 4.066 1.1.601 1.82.907 1.6.68-.22-.226-1.12-.816-2-1.311-4.145-2.33-6.6-3.608-6.6-3.435m173.8.588c-.66.376-2.595 1.458-4.3 2.405-1.705.947-3.1 1.815-3.1 1.928 0 .114 1.215-.47 2.7-1.297s3.33-1.849 4.1-2.272c1.305-.716 2.391-1.522 1.98-1.47-.099.013-.72.33-1.38.706m-216.6-.139c0 .104.585.475 1.3.824l1.3.634-1-.815c-.963-.785-1.6-1.041-1.6-.643m259.2.61c-.55.43-.82.782-.6.782.22 0 .85-.352 1.4-.782.55-.43.82-.782.6-.782-.22 0-.85.352-1.4.782m-254.6 1.875c.22.223 1.48.999 2.8 1.725 1.32.726 2.22 1.133 2 .904-.22-.229-1.48-1.005-2.8-1.725-1.32-.72-2.22-1.127-2-.904m249.1 1.154c-1.375.78-2.5 1.506-2.5 1.615 0 .235 4.431-2.147 4.98-2.677.662-.639.09-.394-2.48 1.062M152 594.822c1.033.704 3.6 2.003 3.6 1.82 0-.209-3.595-2.245-3.95-2.236-.138.003.02.19.35.416m152.898 1.351c-1.595.933-3.035 1.845-3.2 2.025-.355.391 5.931-2.961 6.482-3.456.878-.79-.548-.168-3.282 1.431m44.302-.427c-.55.298-2.17 1.207-3.6 2.021-1.43.814-2.915 1.581-3.3 1.703-.385.123-.7.397-.7.609 0 .213.585.034 1.3-.397 1.57-.946 4.889-2.8 6.4-3.576.605-.31 1.1-.641 1.1-.735 0-.251-.101-.219-1.2.375M112 596.764c.55.45 1.18.819 1.4.821.428.003-.295-.551-1.6-1.225-.531-.275-.464-.139.2.404m2 1.02c0 .11.72.567 1.6 1.016.88.449 1.6.726 1.6.616 0-.11-.72-.567-1.6-1.016-.88-.449-1.6-.726-1.6-.616m44.4.583c.963.785 1.6 1.041 1.6.643 0-.104-.585-.475-1.3-.824l-1.3-.634 1 .815m139.9 1.462c-.605.328-1.1.681-1.1.784 0 .386.632.144 1.6-.613 1.189-.93 1.011-.991-.5-.171m-180.7-.039c0 .104.585.475 1.3.824l1.3.634-1-.815c-.963-.785-1.6-1.041-1.6-.643m221.6 1.475c-2.031 1.173-2.481 1.768-.6.794 2.014-1.042 2.916-1.653 2.4-1.624-.22.012-1.03.386-1.8.83m-218.4.355c1.387.941 2.178 1.215 1.2.416-.55-.45-1.18-.819-1.4-.821-.22-.002-.13.181.2.405m44.8.747c.963.785 1.6 1.041 1.6.643 0-.104-.585-.475-1.3-.824l-1.3-.634 1 .815m128.3-.138c-.605.328-1.1.681-1.1.784 0 .386.632.144 1.6-.613 1.189-.93 1.011-.991-.5-.171m-8.3 4.68c-3.631 2.03-7.453 4.139-8.495 4.687-3.836 2.018-3.973 2.004 19.123 2.004 22.06 0 24.572-.186 24.572-1.816 0-.11-.716.165-1.591.611-1.547.79-2.172.809-22.7.709L275.4 613l3.2-1.764c1.76-.971 4.01-2.21 5-2.755.99-.544 2.845-1.595 4.121-2.335 1.277-.74 2.447-1.35 2.6-1.355.319-.01 2.385-1.573 2.079-1.573-.11 0-3.17 1.661-6.8 3.691m-160.8-3.119c0 .104.585.475 1.3.824l1.3.634-1-.815c-.963-.785-1.6-1.041-1.6-.643m208.8.643l-1 .815 1.3-.634c.715-.349 1.3-.72 1.3-.824 0-.398-.637-.142-1.6.643m-163.6.331c.55.45 1.18.819 1.4.821.428.003-.295-.551-1.6-1.225-.531-.275-.464-.139.2.404m2.2 1.149c.22.226 1.03.757 1.8 1.18.77.423 2.615 1.445 4.1 2.272 1.485.827 2.7 1.414 2.7 1.304 0-.185-1.941-1.315-7-4.076-1.1-.601-1.82-.907-1.6-.68m-40.2 1.866c0 .11.54.48 1.2.821.66.341 1.2.531 1.2.421 0-.11-.54-.48-1.2-.821-.66-.341-1.2-.531-1.2-.421m194.7.45c-1.495.811-1.404 1.149.1.371.66-.341 1.2-.706 1.2-.81 0-.258-.043-.243-1.3.439m-189.5 2.538c.963.785 1.6 1.041 1.6.643 0-.104-.585-.475-1.3-.824l-1.3-.634 1 .815m185.1-.138c-.605.328-1.1.681-1.1.784 0 .386.632.144 1.6-.613 1.189-.93 1.011-.991-.5-.171m-141.1.363c0 .105.765.6 1.7 1.1l1.7.908-21.109.104c-20.528.1-21.153.081-22.7-.709-.875-.446-1.591-.721-1.591-.611 0 .11.713.563 1.584 1.008 1.73.883 44.416 1.308 44.416.442 0-.201-.833-.831-1.85-1.4-1.921-1.073-2.15-1.163-2.15-.842m-41.681 96.931c-3.781 2.124-3.951 2.54-.22.539l3.098-1.662h20.802c11.44 0 20.801.147 20.801.326 0 .179-.652.637-1.45 1.017-.797.38-1.359.781-1.25.89.221.222 3.001-1.318 3.829-2.121.429-.416-3.529-.51-21.2-.504l-21.729.009-2.681 1.506m135.352-1.011c.808.783 3.605 2.345 3.818 2.132.104-.103-.594-.606-1.55-1.116L275.4 707l21.109-.104c20.528-.1 21.153-.081 22.7.709.875.446 1.591.721 1.591.611 0-.11-.713-.563-1.584-1.008-1.988-1.014-45.384-1.303-44.345-.296m46.729 1.908c1.387.941 2.178 1.215 1.2.416-.55-.45-1.18-.819-1.4-.821-.22-.002-.13.181.2.405m-145 2.614c-2.2 1.216-4.18 2.403-4.4 2.637-.363.387.444-.025 6.2-3.163 1.664-.907 2.808-1.723 2.38-1.697-.099.006-1.98 1.006-4.18 2.223m102.6-2.103c0 .174 1.633 1.131 6.6 3.869.66.364 2.415 1.338 3.9 2.165 1.485.827 2.7 1.417 2.7 1.312 0-.176-3.52-2.207-10.5-6.057-1.485-.819-2.7-1.399-2.7-1.289m-144.8 1.502l-1 .815 1.3-.634c.715-.349 1.3-.72 1.3-.824 0-.398-.637-.142-1.6.643m190-.411c1.033.704 3.6 2.003 3.6 1.82 0-.209-3.595-2.245-3.95-2.236-.138.003.02.19.35.416m-193.524 2.261c-.948.552-1.641 1.085-1.54 1.186.1.101 1.056-.365 2.123-1.035 2.323-1.459 1.867-1.577-.583-.151m197.524-.093c0 .104.585.475 1.3.824l1.3.634-1-.815c-.963-.785-1.6-1.041-1.6-.643m-157.82 2.156c-.209.191-1.46.925-2.78 1.633-1.32.708-2.58 1.48-2.8 1.716-.22.237.86-.256 2.4-1.095 3.318-1.807 4.529-2.6 3.969-2.6-.225 0-.58.156-.789.346m-44.68.683c-.605.328-1.1.681-1.1.784 0 .386.632.144 1.6-.613 1.189-.93 1.011-.991-.5-.171m207.7.138c.963.785 1.6 1.041 1.6.643 0-.104-.585-.475-1.3-.824l-1.3-.634 1 .815m-210.5 1.462c-.605.328-1.1.681-1.1.784 0 .386.632.144 1.6-.613 1.189-.93 1.011-.991-.5-.171m169.7-.039c0 .104.585.475 1.3.824l1.3.634-1-.815c-.963-.785-1.6-1.041-1.6-.643m45.2.977c.963.785 1.6 1.041 1.6.643 0-.104-.585-.475-1.3-.824l-1.3-.634 1 .815m-175.1.977c-.495.245-.9.589-.9.765 0 .305.698-.006 2-.889.781-.531.056-.448-1.1.124m133.1-.124c1.387.941 2.178 1.215 1.2.416-.55-.45-1.18-.819-1.4-.821-.22-.002-.13.181.2.405m-177.3.609c-.605.328-1.1.681-1.1.784 0 .386.632.144 1.6-.613 1.189-.93 1.011-.991-.5-.171m-4.995 2.849c-1.812 1.026-3.229 1.931-3.148 2.012.08.08 1.076-.402 2.212-1.072 1.136-.67 2.193-1.222 2.349-1.227.323-.01 2.386-1.572 2.082-1.576-.11-.002-1.683.836-3.495 1.863m44.695-.645l-1 .815 1.3-.634c.715-.349 1.3-.72 1.3-.824 0-.398-.637-.142-1.6.643m141.6-.643c0 .104.585.475 1.3.824l1.3.634-1-.815c-.963-.785-1.6-1.041-1.6-.643m44.6.523c.22.226 1.075.789 1.9 1.249.825.461 2.085 1.167 2.8 1.569 5.136 2.886 6.7 3.713 6.7 3.538 0-.11-1.215-.877-2.7-1.704s-3.33-1.858-4.1-2.291c-3.844-2.162-4.965-2.737-4.6-2.361m-236.578 3.913c-.979.559-2.959 1.663-4.4 2.453-5.004 2.741-6.822 3.798-6.822 3.967 0 .229 2.204-.914 6.951-3.606 2.173-1.232 4.063-2.244 4.2-2.249.304-.011 2.331-1.572 2.049-1.577-.11-.003-1 .453-1.978 1.012m42.639.42c-1.067.555-1.859 1.089-1.761 1.187.187.188 3.9-1.781 3.9-2.067 0-.234.01-.238-2.139.88m156.539-.887c0 .292 3.71 2.264 3.901 2.074.098-.099-.739-.644-1.861-1.213-1.122-.568-2.04-.956-2.04-.861m-160.1 2.87c-.605.328-1.1.681-1.1.784 0 .386.632.144 1.6-.613 1.189-.93 1.011-.991-.5-.171m165.3.138c.963.785 1.6 1.041 1.6.643 0-.104-.585-.475-1.3-.824l-1.3-.634 1 .815m-169.8 2.442c-1.54.874-3.475 1.902-4.3 2.284-.825.383-1.5.839-1.5 1.014 0 .175.855-.163 1.9-.752s2.89-1.609 4.1-2.267c2.035-1.106 3.213-1.902 2.78-1.878-.099.005-1.44.725-2.98 1.599m172-1.319c.545.547 6.103 3.508 5.6 2.984-.22-.229-1.66-1.085-3.2-1.901-1.54-.816-2.62-1.303-2.4-1.083m43.4-.111c0 .11.54.48 1.2.821.66.341 1.2.531 1.2.421 0-.11-.54-.48-1.2-.821-.66-.341-1.2-.531-1.2-.421m2.8 1.6c0 .11.54.48 1.2.821.66.341 1.2.531 1.2.421 0-.11-.54-.48-1.2-.821-.66-.341-1.2-.531-1.2-.421m-39.6 2.204c1.206.892 2 1.241 2 .878 0-.202-.315-.479-.7-.615-.385-.135-.97-.35-1.3-.477-.533-.204-.533-.181 0 .214m-227.7.646c-.605.328-1.1.681-1.1.784 0 .386.632.144 1.6-.613 1.189-.93 1.011-.991-.5-.171m272.5.138c.963.785 1.6 1.041 1.6.643 0-.104-.585-.475-1.3-.824l-1.3-.634 1 .815m-232.8 2.066l-1 .815 1.3-.634c.715-.349 1.3-.72 1.3-.824 0-.398-.637-.142-1.6.643m192-.643c0 .104.585.475 1.3.824l1.3.634-1-.815c-.963-.785-1.6-1.041-1.6-.643m45.2.977c.963.785 1.6 1.041 1.6.643 0-.104-.585-.475-1.3-.824l-1.3-.634 1 .815m-283.3 1.11c-1.044.581-1.837 1.12-1.76 1.196.16.161 3.86-1.859 3.86-2.107 0-.251-.057-.226-2.1.911m285.5.029c.568.595 3.463 2.164 3.649 1.978.085-.085-.791-.659-1.947-1.275-1.156-.617-1.922-.933-1.702-.703m-292.094 3.627c-2.252 1.277-4.232 2.475-4.4 2.662-.168.187.954-.351 2.494-1.197l4.2-2.305c1.344-.738 2.357-1.499 1.98-1.487-.099.003-2.022 1.05-4.274 2.327m45.494-1.1l-1 .815 1.3-.634c.715-.349 1.3-.72 1.3-.824 0-.398-.637-.142-1.6.643m206.4-.643c0 .104.585.475 1.3.824l1.3.634-1-.815c-.963-.785-1.6-1.041-1.6-.643m45.169.887c1.237.923 8.031 4.618 8.031 4.367 0-.103-1.395-.946-3.1-1.873s-3.73-2.03-4.5-2.451c-1.211-.663-1.269-.669-.431-.043M121.9 741.829c-.605.328-1.1.681-1.1.784 0 .386.632.144 1.6-.613 1.189-.93 1.011-.991-.5-.171m215.7.138c.963.785 1.6 1.041 1.6.643 0-.104-.585-.475-1.3-.824l-1.3-.634 1 .815m-222.777 3.84c-2.958 1.646-5.478 2.997-5.6 3.002-.123.005-.673.382-1.223.839-1.059.879 1.436-.411 9.7-5.013 2.262-1.26 3.125-1.866 2.6-1.828-.055.004-2.52 1.354-5.477 3m224.777-2.866c0 .267 3.69 2.302 3.863 2.13.077-.078-.76-.632-1.861-1.231-1.101-.6-2.002-1.004-2.002-.899M73.511 744.56c-2.095 1.245-2.427 1.703-.511.705 2.005-1.045 2.919-1.662 2.4-1.621-.22.017-1.07.43-1.889.916m312.489.019c0 .11.54.48 1.2.821.66.341 1.2.531 1.2.421 0-.11-.54-.48-1.2-.821-.66-.341-1.2-.531-1.2-.421m-42 .755c0 .139 4.428 2.717 8.5 4.949.165.09.3.083.3-.017 0-.139-4.428-2.717-8.5-4.949-.165-.09-.3-.083-.3.017m-274.4 1.499l-1 .815 1.3-.634c.715-.349 1.3-.72 1.3-.824 0-.398-.637-.142-1.6.643m319.2-.643c0 .104.585.475 1.3.824l1.3.634-1-.815c-.963-.785-1.6-1.041-1.6-.643m-323.3 2.839c-.605.328-1.1.681-1.1.784 0 .386.632.144 1.6-.613 1.189-.93 1.011-.991-.5-.171m327.7-.463c0 .269 3.707 2.261 3.882 2.086.088-.088-.682-.631-1.712-1.206-1.907-1.066-2.17-1.173-2.17-.88m-288 2.67c-.664.543-.731.679-.2.404 1.305-.674 2.028-1.228 1.6-1.225-.22.002-.85.371-1.4.821m248.4-.414c1.033.704 3.6 2.003 3.6 1.82 0-.209-3.595-2.245-3.95-2.236-.138.003.02.19.35.416m-292.5.607c-.605.328-1.1.681-1.1.784 0 .386.632.144 1.6-.613 1.189-.93 1.011-.991-.5-.171m41.4 1.115c-.495.245-.9.589-.9.765 0 .305.698-.006 2-.889.781-.531.056-.448-1.1.124m-45 .933c-1.044.581-1.831 1.126-1.747 1.21.168.167 3.02-1.346 3.627-1.925.619-.59.133-.405-1.88.715m345.3.487c.55.45 1.18.819 1.4.821.428.003-.295-.551-1.6-1.225-.531-.275-.464-.139.2.404M98 755.233l-1 .815 1.3-.634c.715-.349 1.3-.72 1.3-.824 0-.398-.637-.142-1.6.643m262.8-.413c1.387.941 2.178 1.215 1.2.416-.55-.45-1.18-.819-1.4-.821-.22-.002-.13.181.2.405m-306.611.519c-.434.296-2.229 1.31-3.989 2.252-1.76.942-3.38 1.892-3.6 2.112-.559.556 6.794-3.348 7.898-4.194 1.066-.817.829-.947-.309-.17m350.611-.408c0 .213 2.13 1.469 6.4 3.775 1.43.773 2.42 1.217 2.2.987-.22-.23-1.03-.763-1.8-1.186-.77-.423-2.615-1.445-4.1-2.272-1.485-.827-2.7-1.414-2.7-1.304m-311.739 2.915c-1.067.555-1.859 1.089-1.761 1.187.187.188 3.9-1.781 3.9-2.067 0-.234.01-.238-2.139.88m271.739-.88c0 .269 3.707 2.261 3.882 2.086.088-.088-.682-.631-1.712-1.206-1.907-1.066-2.17-1.173-2.17-.88m-320.4 3.867l-1 .815 1.3-.634c.715-.349 1.3-.72 1.3-.824 0-.398-.637-.142-1.6.643m370-.411c1.033.704 3.6 2.003 3.6 1.82 0-.209-3.595-2.245-3.95-2.236-.138.003.02.19.35.416m-330.041 2.29c-1.893 1.038-3.873 2.213-4.4 2.611-.833.628-.775.623.441-.043.77-.421 2.795-1.524 4.5-2.451s3.1-1.762 3.1-1.857c0-.26.039-.279-3.641 1.74M372 760.945c0 .11 2.205 1.405 4.9 2.88 2.695 1.474 5.035 2.758 5.2 2.852.165.093.3.087.3-.015 0-.195-2.155-1.445-7.3-4.234-1.705-.925-3.1-1.592-3.1-1.483M41.111 762.56c-2.095 1.245-2.427 1.703-.511.705 2.005-1.045 2.919-1.662 2.4-1.621-.22.017-1.07.43-1.889.916m377.289.03c0 .104.585.475 1.3.824l1.3.634-1-.815c-.963-.785-1.6-1.041-1.6-.643m5.2 2.977c.963.785 1.6 1.041 1.6.643 0-.104-.585-.475-1.3-.824l-1.3-.634 1 .815m-346.8 1.298c-2.031 1.173-2.481 1.768-.6.794 2.014-1.042 2.916-1.653 2.4-1.624-.22.012-1.03.386-1.8.83m-43.7.164c-.605.328-1.1.681-1.1.784 0 .386.632.144 1.6-.613 1.189-.93 1.011-.991-.5-.171m349.7-.039c0 .104.585.475 1.3.824l1.3.634-1-.815c-.963-.785-1.6-1.041-1.6-.643m-310 2.246c-.664.543-.731.679-.2.404 1.305-.674 2.028-1.228 1.6-1.225-.22.002-.85.371-1.4.821m313.2-.416c1.387.941 2.178 1.215 1.2.416-.55-.45-1.18-.819-1.4-.821-.22-.002-.13.181.2.405m-317.6 2.813l-1 .815 1.3-.634c.715-.349 1.3-.72 1.3-.824 0-.398-.637-.142-1.6.643m321.6-.643c0 .104.585.475 1.3.824l1.3.634-1-.815c-.963-.785-1.6-1.041-1.6-.643M61.2 775.6c-.55.43-.82.782-.6.782.22 0 .85-.352 1.4-.782.55-.43.82-.782.6-.782-.22 0-.85.352-1.4.782m336-.61c0 .104.585.475 1.3.824l1.3.634-1-.815c-.963-.785-1.6-1.041-1.6-.643m-340.1 2.839c-.605.328-1.1.681-1.1.784 0 .386.632.144 1.6-.613 1.189-.93 1.011-.991-.5-.171m345.3.138c.963.785 1.6 1.041 1.6.643 0-.104-.585-.475-1.3-.824l-1.3-.634 1 .815m-349.6 2.299c-1.43.795-3.59 1.972-4.8 2.616-1.21.645-2.38 1.365-2.6 1.6-.373.4 1.32-.465 7.2-3.678 2.208-1.207 3.424-2.02 2.98-1.993-.099.006-1.35.661-2.78 1.455m351.8-1.176c.545.547 6.103 3.508 5.6 2.984-.22-.229-1.66-1.085-3.2-1.901-1.54-.816-2.62-1.303-2.4-1.083m6.6 3.732c.33.225 1.32.782 2.2 1.237 1.969 1.02 1.376.335-.712-.821-1.56-.864-2.551-1.141-1.488-.416m4 2.168c0 .104.585.475 1.3.824l1.3.634-1-.815c-.963-.785-1.6-1.041-1.6-.643M38 788.447c-1.21.672-2.38 1.416-2.6 1.653-.446.48 4.181-1.982 4.78-2.544.638-.598.117-.385-2.18.891m381.6-1.068c0 .11.54.48 1.2.821.66.341 1.2.531 1.2.421 0-.11-.54-.48-1.2-.821-.66-.341-1.2-.531-1.2-.421m2.8 1.611c0 .104.585.475 1.3.824l1.3.634-1-.815c-.963-.785-1.6-1.041-1.6-.643m-391 3.2c-.88.542-1.441.991-1.247.998.402.014 3.047-1.566 3.047-1.821 0-.268-.116-.215-1.8.823m395.4-.848c0 .307 2.823 1.968 3.017 1.775.096-.096-.544-.578-1.421-1.071-.878-.494-1.596-.81-1.596-.704M205.2 793.6c0 .262 8.533.4 24.8.4 16.267 0 24.8-.138 24.8-.4s-8.533-.4-24.8-.4c-16.267 0-24.8.138-24.8.4M5 460h20v20H5zm430 0h20v20h-20z" fill="#d95671"/>
        <path d="M490 526.413c0 .226.315.526.7.665.385.139 1.205.603 1.823 1.031.618.428 1.215.687 1.326.575.112-.112-.528-.615-1.423-1.117-.894-.503-1.626-1.061-1.626-1.241 0-.179-.18-.326-.4-.326-.22 0-.4.186-.4.413m174.899 53.886l-.099 54.499-87.5.102-87.5.102 87.513.099c69.715.079 87.551-.003 87.702-.401.105-.275.144-24.89.086-54.7l-.104-54.2-.098 54.499m50.099.101L715 635l87.4.001 87.4.002-87.299-.103-87.298-.102-.104-54.499-.103-54.499.002 54.6m-68.5-22.524c-.054 17.422-.243 31.767-.421 31.876-.177.11-1.103-.244-2.057-.785-.954-.542-1.8-.921-1.879-.841-.08.08.772.644 1.893 1.254 1.235.672 2.182.964 2.404.742.218-.218.324-13.257.262-32.144l-.105-31.778-.097 31.676m222.104-30.678c-.399.441-.595.802-.435.802.421 0 1.561-1.205 1.345-1.421-.101-.101-.51.177-.91.619m-135.304 37.115c-.104 39.889-.121 39.47 1.587 37.762.307-.307.186-.366-.425-.207l-.856.224-.104-37.746-.104-37.746-.098 37.713m151.021-34.79c-1.475.828-2.825 1.665-3 1.859-.372.412 5.096-2.52 5.661-3.036.691-.63.05-.347-2.661 1.177m-389.919-.585c0 .197 5.738 3.508 6.591 3.803.809.28-1.244-1.046-3.891-2.513-1.485-.823-2.7-1.404-2.7-1.29m41.2.041c0 .11.54.48 1.2.821.66.341 1.2.531 1.2.421 0-.11-.54-.48-1.2-.821-.66-.341-1.2-.531-1.2-.421m327.9 1.25c-1.495.811-1.404 1.149.1.371.66-.341 1.2-.706 1.2-.81 0-.258-.043-.243-1.3.439m-323.5 1.15c0 .11.54.48 1.2.821.66.341 1.2.531 1.2.421 0-.11-.54-.48-1.2-.821-.66-.341-1.2-.531-1.2-.421m337.298 1.994c-3.802 2.224-4.274 2.787-.698.832 3.185-1.74 4.555-2.622 3.989-2.567-.214.02-1.695.801-3.291 1.735m-375.698-.439c0 .143 6.825 4.098 8.6 4.984 1.087.542-.583-.746-2-1.542-4.099-2.304-6.6-3.609-6.6-3.442m353.9 1.743c-1.044.581-1.837 1.12-1.76 1.196.16.161 3.86-1.859 3.86-2.107 0-.251-.057-.226-2.1.911m16.5 1.759c-.664.543-.731.679-.2.404 1.305-.674 2.028-1.228 1.6-1.225-.22.002-.85.371-1.4.821m-22.889 1.724c-2.095 1.245-2.427 1.703-.511.705 2.005-1.045 2.919-1.662 2.4-1.621-.22.017-1.07.43-1.889.916m-296.711.204c.55.45 1.18.819 1.4.821.428.003-.295-.551-1.6-1.225-.531-.275-.464-.139.2.404m-41.6-.171c0 .107.9.65 2 1.207 2.515 1.275 2.621 1.016.15-.366-1.923-1.074-2.15-1.163-2.15-.841m357.1.436c-1.495.811-1.404 1.149.1.371.66-.341 1.2-.706 1.2-.81 0-.258-.043-.243-1.3.439m-22.4 1.6c-1.495.811-1.404 1.149.1.371.66-.341 1.2-.706 1.2-.81 0-.258-.043-.243-1.3.439m-330.3.361c0 .104.585.475 1.3.824l1.3.634-1-.815c-.963-.785-1.6-1.041-1.6-.643m3 1.708c.22.219 1.84 1.166 3.6 2.106 1.76.939 3.429 1.888 3.71 2.109.28.221.606.304.725.185s-1.547-1.179-3.703-2.357c-4.305-2.352-4.947-2.655-4.332-2.043m341.7.779c-1.044.581-1.837 1.12-1.76 1.196.16.161 3.86-1.859 3.86-2.107 0-.251-.057-.226-2.1.911m-296.3 1.502c0 .11.54.48 1.2.821.66.341 1.2.531 1.2.421 0-.11-.54-.48-1.2-.821-.66-.341-1.2-.531-1.2-.421m291.3 1.25c-1.375.78-2.5 1.51-2.5 1.624 0 .221 4.348-2.147 4.98-2.713.704-.63.033-.335-2.48 1.089m-328.1 1.1c0 .109 2.025 1.322 4.5 2.696s5.085 2.845 5.8 3.269c.715.424 1.3.598 1.3.385 0-.212-.315-.486-.7-.609-.385-.122-1.87-.88-3.3-1.683-6.684-3.754-7.6-4.243-7.6-4.058m45.6 2.45c0 .11.54.48 1.2.821.66.341 1.2.531 1.2.421 0-.11-.54-.48-1.2-.821-.66-.341-1.2-.531-1.2-.421m274.4 1.057c-.664.543-.731.679-.2.404 1.305-.674 2.028-1.228 1.6-1.225-.22.002-.85.371-1.4.821m-20.1.193c-1.495.811-1.404 1.149.1.371.66-.341 1.2-.706 1.2-.81 0-.258-.043-.243-1.3.439m-249.1 1.735c.55.45 1.18.819 1.4.821.428.003-.295-.551-1.6-1.225-.531-.275-.464-.139.2.404m264.8.469l-1 .815 1.3-.634c.715-.349 1.3-.72 1.3-.824 0-.398-.637-.142-1.6.643m-350.2-.133c.22.233 1.075.802 1.9 1.262a647.72 647.72 0 013 1.689c3.559 2.018 8.268 4.441 7.9 4.066-.22-.225-1.39-.947-2.6-1.604a325.38 325.38 0 01-3.6-1.985c-4.286-2.417-6.952-3.802-6.6-3.428m392.919 1.223c-1.475.828-2.825 1.665-3 1.859-.372.412 5.096-2.52 5.661-3.036.691-.63.05-.347-2.661 1.177m-45.519.513c-.664.543-.731.679-.2.404 1.305-.674 2.028-1.228 1.6-1.225-.22.002-.85.371-1.4.821m-299.2.154c0 .104.585.475 1.3.824l1.3.634-1-.815c-.963-.785-1.6-1.041-1.6-.643m3.2 1.793c1.206.892 2 1.241 2 .878 0-.202-.315-.479-.7-.615-.385-.135-.97-.35-1.3-.477-.533-.204-.533-.181 0 .214m336.011.637c-1.827 1.289-1.198 1.272.703-.02.809-.55 1.295-.991 1.079-.98-.216.01-1.018.46-1.782 1M586 556.979c0 .11.54.48 1.2.821.66.341 1.2.531 1.2.421 0-.11-.54-.48-1.2-.821-.66-.341-1.2-.531-1.2-.421m290.3 1.848c-.825.436-1.5.881-1.5.991 0 .109.72-.169 1.6-.618.88-.449 1.6-.903 1.6-1.008 0-.262-.003-.261-1.7.635m-328.7-.261c0 .269 3.707 2.261 3.882 2.086.088-.088-.682-.631-1.712-1.206-1.907-1.066-2.17-1.173-2.17-.88m41.6.254c1.387.941 2.178 1.215 1.2.416-.55-.45-1.18-.819-1.4-.821-.22-.002-.13.181.2.405m241.9.209c-1.495.811-1.404 1.149.1.371.66-.341 1.2-.706 1.2-.81 0-.258-.043-.243-1.3.439m-325.5 1.161c0 .104.585.475 1.3.824l1.3.634-1-.815c-.963-.785-1.6-1.041-1.6-.643m303.1.439c-1.495.811-1.404 1.149.1.371.66-.341 1.2-.706 1.2-.81 0-.258-.043-.243-1.3.439m19.6 0c-1.495.811-1.404 1.149.1.371.66-.341 1.2-.706 1.2-.81 0-.258-.043-.243-1.3.439m44.5.204l-1 .815 1.3-.634c.715-.349 1.3-.72 1.3-.824 0-.398-.637-.142-1.6.643m-320.8.119c0 .098 1.215.856 2.7 1.683 1.485.827 3.33 1.86 4.1 2.296 3.702 2.096 6.4 3.499 6.4 3.33 0-.103-2.565-1.621-5.7-3.374-6.81-3.807-7.5-4.169-7.5-3.935m-41.2 2.215c.963.785 1.6 1.041 1.6.643 0-.104-.585-.475-1.3-.824l-1.3-.634 1 .815m313.1-.138c-1.495.811-1.404 1.149.1.371.66-.341 1.2-.706 1.2-.81 0-.258-.043-.243-1.3.439m44.8 0c-1.495.811-1.404 1.149.1.371.66-.341 1.2-.706 1.2-.81 0-.258-.043-.243-1.3.439m-355.1 1.738c.963.785 1.6 1.041 1.6.643 0-.104-.585-.475-1.3-.824l-1.3-.634 1 .815m306.7.31c-1.044.581-1.837 1.12-1.76 1.196.16.161 3.86-1.859 3.86-2.107 0-.251-.057-.226-2.1.911m-219.9-.098c0 .11.54.48 1.2.821.66.341 1.2.531 1.2.421 0-.11-.54-.48-1.2-.821-.66-.341-1.2-.531-1.2-.421m-82.4 2.188c.963.785 1.6 1.041 1.6.643 0-.104-.585-.475-1.3-.824l-1.3-.634 1 .815m296.4 1.269c-.664.543-.731.679-.2.404 1.305-.674 2.028-1.228 1.6-1.225-.22.002-.85.371-1.4.821m-294.2-.13c.568.595 3.463 2.164 3.649 1.978.085-.085-.791-.659-1.947-1.275-1.156-.617-1.922-.933-1.702-.703m-18.6.514c1.387.941 2.178 1.215 1.2.416-.55-.45-1.18-.819-1.4-.821-.22-.002-.13.181.2.405m64-.23c0 .104.585.475 1.3.824l1.3.634-1-.815c-.963-.785-1.6-1.041-1.6-.643M857 569.6c-.66.437-1.02.792-.8.788.401-.006 2.576-1.565 2.2-1.576-.11-.004-.74.351-1.4.788m-45.889.56c-2.095 1.245-2.427 1.703-.511.705 2.005-1.045 2.919-1.662 2.4-1.621-.22.017-1.07.43-1.889.916m-20.411.517c-1.044.581-1.837 1.12-1.76 1.196.16.161 3.86-1.859 3.86-2.107 0-.251-.057-.226-2.1.911m-221.9-.255c.33.225 1.32.782 2.2 1.237 1.969 1.02 1.376.335-.712-.821-1.56-.864-2.551-1.141-1.488-.416m-44.2.282c.22.231 1.03.766 1.8 1.189.77.423 2.615 1.445 4.1 2.272 1.485.827 2.7 1.417 2.7 1.312 0-.106-1.845-1.228-4.1-2.494-5.032-2.824-5.005-2.811-4.5-2.279m329.6.427a304.66 304.66 0 01-3.302 1.842c-1.156.636-2.033 1.225-1.948 1.31.084.084 1.083-.395 2.219-1.065 1.136-.67 2.193-1.222 2.349-1.227.155-.005.732-.361 1.282-.791 1.222-.956.998-.982-.6-.069m-281.4 1.459c0 .104.585.475 1.3.824l1.3.634-1-.815c-.963-.785-1.6-1.041-1.6-.643m41.6.23c1.387.941 2.178 1.215 1.2.416-.55-.45-1.18-.819-1.4-.821-.22-.002-.13.181.2.405m169.911 1.34c-2.095 1.245-2.427 1.703-.511.705 2.005-1.045 2.919-1.662 2.4-1.621-.22.017-1.07.43-1.889.916m-207.111.819c0 .11.54.48 1.2.821.66.341 1.2.531 1.2.421 0-.11-.54-.48-1.2-.821-.66-.341-1.2-.531-1.2-.421m41.2 0c0 .11.54.48 1.2.821.66.341 1.2.531 1.2.421 0-.11-.54-.48-1.2-.821-.66-.341-1.2-.531-1.2-.421m-84.8.787c0 .269 3.707 2.261 3.882 2.086.088-.088-.682-.631-1.712-1.206-1.907-1.066-2.17-1.173-2.17-.88m247.1.463c-1.495.811-1.404 1.149.1.371.66-.341 1.2-.706 1.2-.81 0-.258-.043-.243-1.3.439m18.811.331c-2.324 1.381-2.329 1.646-.011.481 1.155-.58 2.1-1.141 2.1-1.248 0-.344-.571-.135-2.089.767m44.8 0c-2.095 1.245-2.427 1.703-.511.705 2.005-1.045 2.919-1.662 2.4-1.621-.22.017-1.07.43-1.889.916M580 576.59c0 .104.585.475 1.3.824l1.3.634-1-.815c-.963-.785-1.6-1.041-1.6-.643m-62.8.789c0 .11.54.48 1.2.821.66.341 1.2.531 1.2.421 0-.11-.54-.48-1.2-.821-.66-.341-1.2-.531-1.2-.421m20.8.8c0 .11.54.48 1.2.821.66.341 1.2.531 1.2.421 0-.11-.54-.48-1.2-.821-.66-.341-1.2-.531-1.2-.421m-18 .8c0 .11.54.48 1.2.821.66.341 1.2.531 1.2.421 0-.11-.54-.48-1.2-.821-.66-.341-1.2-.531-1.2-.421m65.2.578c.55.454 1.127.829 1.282.834.156.005 1.199.549 2.318 1.209s2.153 1.2 2.298 1.2c.58 0-.658-.801-3.698-2.393-1.76-.921-2.75-1.304-2.2-.85m209 .043c-.66.437-1.02.792-.8.788.401-.006 2.576-1.565 2.2-1.576-.11-.004-.74.351-1.4.788m-253.4.166c0 .269 3.707 2.261 3.882 2.086.088-.088-.682-.631-1.712-1.206-1.907-1.066-2.17-1.173-2.17-.88m296.311.794c-2.324 1.381-2.329 1.646-.011.481 1.155-.58 2.1-1.141 2.1-1.248 0-.344-.571-.135-2.089.767m41.189.117c-1.044.581-1.837 1.12-1.76 1.196.16.161 3.86-1.859 3.86-2.107 0-.251-.057-.226-2.1.911m-106.4.352c-1.495.811-1.404 1.149.1.371.66-.341 1.2-.706 1.2-.81 0-.258-.043-.243-1.3.439m16.606 1.704c-2.252 1.277-4.232 2.473-4.4 2.658-.38.418-.393.425 4.594-2.374 3.48-1.953 4.533-2.641 4-2.611-.055.003-1.942 1.05-4.194 2.327m-263.306-.769c.55.45 1.18.819 1.4.821.428.003-.295-.551-1.6-1.225-.531-.275-.464-.139.2.404m243.9.665c-1.495.811-1.404 1.149.1.371.66-.341 1.2-.706 1.2-.81 0-.258-.043-.243-1.3.439m-241.9.355c0 .11.72.567 1.6 1.016.88.449 1.6.726 1.6.616 0-.11-.72-.567-1.6-1.016-.88-.449-1.6-.726-1.6-.616m20.298.474c.494.408 1.754 1.187 2.8 1.731 1.046.545 2.73 1.469 3.741 2.054 3.578 2.071 8.761 4.804 8.761 4.621 0-.156-5.234-3.121-14.4-8.158-1.164-.639-1.483-.727-.902-.248m284.302.142c-.66.437-1.02.792-.8.788.401-.006 2.576-1.565 2.2-1.576-.11-.004-.74.351-1.4.788m40.111.56c-2.095 1.245-2.427 1.703-.511.705 2.005-1.045 2.919-1.662 2.4-1.621-.22.017-1.07.43-1.889.916M594 584.422c.33.225 1.32.782 2.2 1.237 1.969 1.02 1.376.335-.712-.821-1.56-.864-2.551-1.141-1.488-.416m170.6.778c-.66.437-1.02.792-.8.788.401-.006 2.576-1.565 2.2-1.576-.11-.004-.74.351-1.4.788m63.7.277c-1.044.581-1.837 1.12-1.76 1.196.16.161 3.86-1.859 3.86-2.107 0-.251-.057-.226-2.1.911m-190.3.487c.55.45 1.18.819 1.4.821.428.003-.295-.551-1.6-1.225-.531-.275-.464-.139.2.404m144 .472c-.664.543-.731.679-.2.404 1.305-.674 2.028-1.228 1.6-1.225-.22.002-.85.371-1.4.821m-184 .154c0 .104.585.475 1.3.824l1.3.634-1-.815c-.963-.785-1.6-1.041-1.6-.643m226.6 1.01c-.66.437-1.02.792-.8.788.401-.006 2.576-1.565 2.2-1.576-.11-.004-.74.351-1.4.788m-223.8.593c0 .107.945.666 2.1 1.243 2.325 1.163 2.169.721-.212-.598-1.56-.864-1.888-.976-1.888-.645m176.8.64l-1 .815 1.3-.634c.715-.349 1.3-.72 1.3-.824 0-.398-.637-.142-1.6.643m43.3.779c-1.155.662-2.1 1.298-2.1 1.413 0 .218 3.521-1.711 4.18-2.291.701-.616.035-.335-2.08.878m-282.9-.633c0 .11.54.48 1.2.821.66.341 1.2.531 1.2.421 0-.11-.54-.48-1.2-.821-.66-.341-1.2-.531-1.2-.421m217.5 1.25c-1.495.811-1.404 1.149.1.371.66-.341 1.2-.706 1.2-.81 0-.258-.043-.243-1.3.439m105.6 0c-1.495.811-1.404 1.149.1.371.66-.341 1.2-.706 1.2-.81 0-.258-.043-.243-1.3.439m-253.5 1.738c.963.785 1.6 1.041 1.6.643 0-.104-.585-.475-1.3-.824l-1.3-.634 1 .815m-44.2.336c.552.555 6.6 3.819 6.6 3.561 0-.114-1.391-.986-3.091-1.936-3.447-1.926-4.116-2.237-3.509-1.625m206.2.915c-.99.642-1.688 1.17-1.55 1.174.345.011 3.95-2.021 3.95-2.226 0-.361-.679-.064-2.4 1.052m45.6-.382c-.664.543-.731.679-.2.404 1.305-.674 2.028-1.228 1.6-1.225-.22.002-.85.371-1.4.821m-204.8.731c.963.785 1.6 1.041 1.6.643 0-.104-.585-.475-1.3-.824l-1.3-.634 1 .815m201.511.993c-2.095 1.245-2.427 1.703-.511.705 2.005-1.045 2.919-1.662 2.4-1.621-.22.017-1.07.43-1.889.916m-199.311.142c.22.214 1.66 1.067 3.2 1.895 1.54.828 3.97 2.172 5.4 2.987 5.679 3.233 7.2 4.008 7.2 3.666 0-.196-.315-.457-.7-.58-.698-.222-3.209-1.59-8.9-4.847-3.681-2.106-6.738-3.646-6.2-3.121m152.3 1.127c-1.375.78-2.5 1.51-2.5 1.624 0 .221 4.348-2.147 4.98-2.713.704-.63.033-.335-2.48 1.089m-215.3-.45c0 .11.54.48 1.2.821.66.341 1.2.531 1.2.421 0-.11-.54-.48-1.2-.821-.66-.341-1.2-.531-1.2-.421m21.6 1.421c.55.43 1.18.782 1.4.782.22 0-.05-.352-.6-.782-.55-.43-1.18-.782-1.4-.782-.22 0 .05.352.6.782m172.7-.171c-1.495.811-1.404 1.149.1.371.66-.341 1.2-.706 1.2-.81 0-.258-.043-.243-1.3.439m64.1.204l-1 .815 1.3-.634c.715-.349 1.3-.72 1.3-.824 0-.398-.637-.142-1.6.643m-253.2 1.531c.55.45 1.18.819 1.4.821.428.003-.295-.551-1.6-1.225-.531-.275-.464-.139.2.404m20.2.336c.22.233 1.075.802 1.9 1.262a692.39 692.39 0 012.947 1.658c.796.45 1.531.735 1.634.632.103-.103-.233-.405-.747-.672a310.702 310.702 0 01-3.534-1.895c-1.43-.775-2.42-1.219-2.2-.985m228.9.329c-1.495.811-1.404 1.149.1.371.66-.341 1.2-.706 1.2-.81 0-.258-.043-.243-1.3.439m-47.589 1.531c-2.095 1.245-2.427 1.703-.511.705 2.005-1.045 2.919-1.662 2.4-1.621-.22.017-1.07.43-1.889.916m-19.611.069c-1.495.811-1.404 1.149.1.371.66-.341 1.2-.706 1.2-.81 0-.258-.043-.243-1.3.439m15.7 2.207c-.664.543-.731.679-.2.404 1.305-.674 2.028-1.228 1.6-1.225-.22.002-.85.371-1.4.821m-170.2-.136c.389.413 1.48 1.06 5.6 3.321 4.994 2.741 7.568 4.06 7.2 3.689-.22-.221-1.39-.94-2.6-1.597a325.38 325.38 0 01-3.6-1.985c-4.286-2.417-6.952-3.802-6.6-3.428m212.78 1.246c-.209.191-1.46.925-2.78 1.633-1.32.708-2.58 1.472-2.8 1.699-.42.433 4.627-2.214 5.989-3.141.434-.295.605-.537.38-.537-.225 0-.58.156-.789.346m40.62.49c-.664.543-.731.679-.2.404 1.305-.674 2.028-1.228 1.6-1.225-.22.002-.85.371-1.4.821m-269.2.384c1.387.941 2.178 1.215 1.2.416-.55-.45-1.18-.819-1.4-.821-.22-.002-.13.181.2.405m64-.23c0 .104.585.475 1.3.824l1.3.634-1-.815c-.963-.785-1.6-1.041-1.6-.643m117.9.439c-1.495.811-1.404 1.149.1.371.66-.341 1.2-.706 1.2-.81 0-.258-.043-.243-1.3.439m-2.8 1.6c-1.495.811-1.404 1.149.1.371.66-.341 1.2-.706 1.2-.81 0-.258-.043-.243-1.3.439m-110.7.361c0 .104.585.475 1.3.824l1.3.634-1-.815c-.963-.785-1.6-1.041-1.6-.643m151.911 1.57c-2.095 1.245-2.427 1.703-.511.705 2.005-1.045 2.919-1.662 2.4-1.621-.22.017-1.07.43-1.889.916m-149.111.03c0 .104.585.475 1.3.824l1.3.634-1-.815c-.963-.785-1.6-1.041-1.6-.643m103.5.439c-1.495.811-1.404 1.149.1.371.66-.341 1.2-.706 1.2-.81 0-.258-.043-.243-1.3.439m-145.5 1.161c0 .104.585.475 1.3.824l1.3.634-1-.815c-.963-.785-1.6-1.041-1.6-.643m187.2.643l-1 .815 1.3-.634c.715-.349 1.3-.72 1.3-.824 0-.398-.637-.142-1.6.643m41.5-.204c-1.495.811-1.404 1.149.1.371.66-.341 1.2-.706 1.2-.81 0-.258-.043-.243-1.3.439m-246.7.35c0 .11.54.48 1.2.821.66.341 1.2.531 1.2.421 0-.11-.54-.48-1.2-.821-.66-.341-1.2-.531-1.2-.421m64.4.005c0 .11.72.567 1.6 1.016.88.449 1.6.993 1.6 1.208 0 .735-42.596.511-44.12-.232l-1.28-.624 1 .815c.974.794 45.6 1.386 45.6.604 0-.449-1.077-1.292-2.725-2.133-.921-.47-1.675-.764-1.675-.654m94.7.445c-1.495.811-1.404 1.149.1.371.66-.341 1.2-.706 1.2-.81 0-.258-.043-.243-1.3.439m-155.952 1.505c.509.616-2.669.67-45.2.766l-45.748.103 45.876.099c25.232.054 45.966-.046 46.075-.222.108-.176-.196-.565-.677-.864-.797-.496-.825-.486-.326.118m153.732-.054c-.264.264-.48.624-.48.8 0 .664 43.52.382 44.82-.29.649-.336 1.18-.701 1.18-.811 0-.11-.531.075-1.18.411-1.77.915-44.116.925-43.765.01.278-.724.072-.767-.575-.12m86 0c-.264.264-.48.624-.48.8 0 .176 15.795.276 35.1.222l35.1-.098-34.687-.104c-30.582-.092-34.659-.175-34.457-.702.277-.722.071-.765-.576-.118M577.499 685.1l87.298.102.104 54.299.103 54.299-.002-54.4L665 685l-87.4-.001-87.4-.002 87.299.103m137.486.2c-.105.275-.144 24.89-.086 54.7l.104 54.2.098-54.499.099-54.499 87.5-.102 87.5-.102-87.513-.099c-69.715-.079-87.551.003-87.702.401m-190.498 21c32.801.099 34.672.142 34.425.802-.229.609-.177.629.409.153 1.456-1.185-.579-1.253-34.645-1.157l-34.876.098 34.687.104m77.375 0c-.102.165 9.713.252 21.811.193 23.412-.113 23.099-.14 19.607 1.665-.704.365-1.28.753-1.28.863 0 .276 2.406-.983 3.486-1.824.488-.38.773-.805.634-.944-.361-.361-44.035-.315-44.258.047m132.018-.047c-.139.139.146.559.634.934 1.379 1.059 7.582 4.451 7.778 4.254.097-.097-.244-.397-.758-.666-3.548-1.862-6.211-3.401-6.663-3.85-.866-.861 42.278-.764 44.049.099l1.28.624-1-.815c-.997-.813-44.53-1.37-45.32-.58m64.4 0c-.316.317 1.08 1.421 2.92 2.31 1.53.738.838.105-1.27-1.163l-1.33-.8 45.8-.203 45.8-.202-45.833-.098c-25.209-.053-45.948.017-46.087.156m-199.98 1.976c-1.495.811-1.404 1.149.1.371.66-.341 1.2-.706 1.2-.81 0-.258-.043-.243-1.3.439m184.5.938c.963.785 1.6 1.041 1.6.643 0-.104-.585-.475-1.3-.824l-1.3-.634 1 .815m-230.1 1.462c-1.495.811-1.404 1.149.1.371.66-.341 1.2-.706 1.2-.81 0-.258-.043-.243-1.3.439m41.2 0c-.605.328-1.1.681-1.1.784 0 .386.632.144 1.6-.613 1.189-.93 1.011-.991-.5-.171m190.9-.439c0 .104.585.475 1.3.824l1.3.634-1-.815c-.963-.785-1.6-1.041-1.6-.643m-194.5 2.487c-1.044.581-1.837 1.12-1.76 1.196.16.161 3.86-1.859 3.86-2.107 0-.251-.057-.226-2.1.911m152.5-.898c0 .11.54.48 1.2.821.66.341 1.2.531 1.2.421 0-.11-.54-.48-1.2-.821-.66-.341-1.2-.531-1.2-.421m-194.5 1.25c-.605.328-1.1.681-1.1.784 0 .386.632.144 1.6-.613 1.189-.93 1.011-.991-.5-.171m241.7.123c.55.457 1.127.834 1.282.839.156.005 1.199.549 2.318 1.209 2.059 1.214 3.241 1.652 1.789.662-1.718-1.17-6.327-3.488-5.389-2.71m-44.4.214c0 .269 3.707 2.261 3.882 2.086.088-.088-.682-.631-1.712-1.206-1.907-1.066-2.17-1.173-2.17-.88m-200.1 1.263c-1.495.811-1.404 1.149.1.371.66-.341 1.2-.706 1.2-.81 0-.258-.043-.243-1.3.439m41.2 0c-1.495.811-1.404 1.149.1.371.66-.341 1.2-.706 1.2-.81 0-.258-.043-.243-1.3.439m44.8 0c-.605.328-1.1.681-1.1.784 0 .386.632.144 1.6-.613 1.189-.93 1.011-.991-.5-.171m180.9.135c.55.45 1.18.819 1.4.821.428.003-.295-.551-1.6-1.225-.531-.275-.464-.139.2.404M541 717.2c-.66.437-1.02.792-.8.788.401-.006 2.576-1.565 2.2-1.576-.11-.004-.74.351-1.4.788m210.6-.446c0 .245.172.446.382.446.211 0 1.313.548 2.449 1.218 1.136.67 2.152 1.133 2.256 1.028.105-.105-.592-.589-1.548-1.076-.957-.487-2.144-1.15-2.639-1.474-.577-.377-.9-.428-.9-.142m-170.489 1.006c-2.095 1.245-2.427 1.703-.511.705 2.005-1.045 2.919-1.662 2.4-1.621-.22.017-1.07.43-1.889.916m64.787.132c.39.276.521 8.584.603 38.33l.105 37.978-.003-38.167c-.003-33.584-.075-38.186-.603-38.33-.442-.121-.469-.071-.102.189m153.113.246c1.424.97 6.398 3.597 5.989 3.162-.22-.233-1.075-.802-1.9-1.262a711.437 711.437 0 01-2.912-1.638c-1.598-.905-2.374-1.078-1.177-.262m-174.711.491c-.605.328-1.1.681-1.1.784 0 .386.632.144 1.6-.613 1.189-.93 1.011-.991-.5-.171m195.3.135c.55.45 1.18.819 1.4.821.428.003-.295-.551-1.6-1.225-.531-.275-.464-.139.2.404m-283 .836c-.66.437-1.02.792-.8.788.401-.006 2.576-1.565 2.2-1.576-.11-.004-.74.351-1.4.788m40.6.436c-.664.543-.731.679-.2.404 1.305-.674 2.028-1.228 1.6-1.225-.22.002-.85.371-1.4.821m180.8.316c.55.457 1.125.834 1.279.839.153.005 1.323.611 2.6 1.347 4.282 2.469 8.521 4.72 8.521 4.524 0-.106-1.215-.87-2.7-1.697-8.264-4.602-10.759-5.892-9.7-5.013m-138.2.848c-.66.437-1.02.792-.8.788.401-.006 2.576-1.565 2.2-1.576-.11-.004-.74.351-1.4.788m204.2.02c1.387.941 2.178 1.215 1.2.416-.55-.45-1.18-.819-1.4-.821-.22-.002-.13.181.2.405m-207 1.509c-.66.376-2.595 1.458-4.3 2.405-1.705.947-3.1 1.815-3.1 1.928 0 .114 1.215-.47 2.7-1.297s3.33-1.849 4.1-2.272c1.305-.716 2.391-1.522 1.98-1.47-.099.013-.72.33-1.38.706m191 .471c.55.43 1.18.782 1.4.782.22 0-.05-.352-.6-.782-.55-.43-1.18-.782-1.4-.782-.22 0 .05.352.6.782m-279.689.96c-2.095 1.245-2.427 1.703-.511.705 2.005-1.045 2.919-1.662 2.4-1.621-.22.017-1.07.43-1.889.916m41.2 0c-2.324 1.381-2.329 1.646-.011.481 1.155-.58 2.1-1.141 2.1-1.248 0-.344-.571-.135-2.089.767M828 723.379c0 .11.54.48 1.2.821.66.341 1.2.531 1.2.421 0-.11-.54-.48-1.2-.821-.66-.341-1.2-.531-1.2-.421m-18 .745c0 .291 6.5 3.91 6.686 3.723.09-.09-1.238-.947-2.952-1.905-3.577-1.999-3.734-2.076-3.734-1.818m21.2 1.096c1.387.941 2.178 1.215 1.2.416-.55-.45-1.18-.819-1.4-.821-.22-.002-.13.181.2.405m-306.5 1.009c-1.495.811-1.404 1.149.1.371.66-.341 1.2-.706 1.2-.81 0-.258-.043-.243-1.3.439m104 .8c-1.495.811-1.404 1.149.1.371.66-.341 1.2-.706 1.2-.81 0-.258-.043-.243-1.3.439m-21.1 1.004l-1 .815 1.3-.634c.715-.349 1.3-.72 1.3-.824 0-.398-.637-.142-1.6.643m163.2-.643c0 .104.585.475 1.3.824l1.3.634-1-.815c-.963-.785-1.6-1.041-1.6-.643m-209.3 1.239c-1.495.811-1.404 1.149.1.371.66-.341 1.2-.706 1.2-.81 0-.258-.043-.243-1.3.439m255.7-.472c0 .184 2.589 1.657 10.6 6.034 1.54.842 3.43 1.881 4.2 2.309 1.265.704 1.313.708.502.04-.494-.407-1.754-1.189-2.8-1.737-1.046-.549-3.612-1.962-5.702-3.141-4.682-2.64-6.8-3.732-6.8-3.505m-260.081 2.966c-1.475.828-2.825 1.665-3 1.859-.372.412 5.096-2.52 5.661-3.036.691-.63.05-.347-2.661 1.177m46.381-.894c-1.495.811-1.404 1.149.1.371.66-.341 1.2-.706 1.2-.81 0-.258-.043-.243-1.3.439m129.967-.362c-.147.146-.224 14.501-.171 31.9l.097 31.633.203-31.6c.167-25.934.299-31.58.734-31.49.291.06.415-.075.276-.3-.291-.471-.753-.529-1.139-.143m42.533.5c.963.785 1.6 1.041 1.6.643 0-.104-.585-.475-1.3-.824l-1.3-.634 1 .815m-260.1.662c-1.495.811-1.404 1.149.1.371.66-.341 1.2-.706 1.2-.81 0-.258-.043-.243-1.3.439m220.9.312c0 .267 3.69 2.302 3.863 2.13.077-.078-.76-.632-1.861-1.231-1.101-.6-2.002-1.004-2.002-.899m43.6 1.426c.963.785 1.6 1.041 1.6.643 0-.104-.585-.475-1.3-.824l-1.3-.634 1 .815m-269 .833c-.66.437-1.02.792-.8.788.401-.006 2.576-1.565 2.2-1.576-.11-.004-.74.351-1.4.788m105.6 0c-.66.437-1.02.792-.8.788.401-.006 2.576-1.565 2.2-1.576-.11-.004-.74.351-1.4.788m-65 .436c-.664.543-.731.679-.2.404 1.305-.674 2.028-1.228 1.6-1.225-.22.002-.85.371-1.4.821m43.5.641c-1.044.581-1.837 1.12-1.76 1.196.16.161 3.86-1.859 3.86-2.107 0-.251-.057-.226-2.1.911m187.1-.771c.568.595 3.463 2.164 3.649 1.978.085-.085-.791-.659-1.947-1.275-1.156-.617-1.922-.933-1.702-.703m-233.4 1.73c-.664.543-.731.679-.2.404 1.305-.674 2.028-1.228 1.6-1.225-.22.002-.85.371-1.4.821m194.4-.416c1.387.941 2.178 1.215 1.2.416-.55-.45-1.18-.819-1.4-.821-.22-.002-.13.181.2.405m105.6.002c1.033.704 3.6 2.003 3.6 1.82 0-.209-3.595-2.245-3.95-2.236-.138.003.02.19.35.416M612 736.436c-.664.543-.731.679-.2.404 1.305-.674 2.028-1.228 1.6-1.225-.22.002-.85.371-1.4.821m-20.2.295a304.66 304.66 0 01-3.302 1.842c-1.156.636-2.033 1.225-1.948 1.31.084.084 1.083-.395 2.219-1.065 1.136-.67 2.193-1.222 2.349-1.227.155-.005.732-.361 1.282-.791 1.222-.956.998-.982-.6-.069m195.2-.418c.22.226 1.12.816 2 1.311 4.145 2.33 6.6 3.608 6.6 3.435 0-.176-1.993-1.334-7-4.066-1.1-.601-1.82-.907-1.6-.68m-242.2 1.72l-1 .815 1.3-.634c.715-.349 1.3-.72 1.3-.824 0-.398-.637-.142-1.6.643m203.2-.413c1.387.941 2.178 1.215 1.2.416-.55-.45-1.18-.819-1.4-.821-.22-.002-.13.181.2.405m87.42.72c.639.572 4.98 2.933 4.98 2.709 0-.116-1.09-.849-2.421-1.63-2.322-1.361-3.366-1.801-2.559-1.079m21.38 1.044c0 .11.72.567 1.6 1.016.88.449 1.6.726 1.6.616 0-.11-.72-.567-1.6-1.016-.88-.449-1.6-.726-1.6-.616m-316.1.845c-1.495.811-1.404 1.149.1.371.66-.341 1.2-.706 1.2-.81 0-.258-.043-.243-1.3.439m-3.1 1.804l-1 .815 1.3-.634c.715-.349 1.3-.72 1.3-.824 0-.398-.637-.142-1.6.643m44.8.003c-.664.543-.731.679-.2.404 1.305-.674 2.028-1.228 1.6-1.225-.22.002-.85.371-1.4.821m213.6-.646c0 .104.585.475 1.3.824l1.3.634-1-.815c-.963-.785-1.6-1.041-1.6-.643m64.4-.011c0 .11.54.48 1.2.821.66.341 1.2.531 1.2.421 0-.11-.54-.48-1.2-.821-.66-.341-1.2-.531-1.2-.421m-365.3 1.25c-1.495.811-1.404 1.149.1.371.66-.341 1.2-.706 1.2-.81 0-.258-.043-.243-1.3.439m105.6 0c-1.495.811-1.404 1.149.1.371.66-.341 1.2-.706 1.2-.81 0-.258-.043-.243-1.3.439m241.7-.463c0 .145 1.59 1.068 6.8 3.946.77.425 1.629.96 1.91 1.188.28.228.606.317.725.198.118-.118-1.891-1.404-4.466-2.857-4.686-2.643-4.969-2.784-4.969-2.475m-43.2 1.056c1.033.704 3.6 2.003 3.6 1.82 0-.209-3.595-2.245-3.95-2.236-.138.003.02.19.35.416m-265.7 1.007c-1.495.811-1.404 1.149.1.371.66-.341 1.2-.706 1.2-.81 0-.258-.043-.243-1.3.439m44.8 0c-1.495.811-1.404 1.149.1.371.66-.341 1.2-.706 1.2-.81 0-.258-.043-.243-1.3.439m180.9-.45c0 .11.54.48 1.2.821.66.341 1.2.531 1.2.421 0-.11-.54-.48-1.2-.821-.66-.341-1.2-.531-1.2-.421M529 746.8c-.66.437-1.02.792-.8.788.401-.006 2.576-1.565 2.2-1.576-.11-.004-.74.351-1.4.788m64.5-.171c-1.495.811-1.404 1.149.1.371.66-.341 1.2-.706 1.2-.81 0-.258-.043-.243-1.3.439m212.1.138c.963.785 1.6 1.041 1.6.643 0-.104-.585-.475-1.3-.824l-1.3-.634 1 .815m-280.8 2.274c-1.43.781-2.78 1.614-3 1.852-.434.469 4.955-2.377 5.58-2.947.665-.606.086-.361-2.58 1.095m283.6-.674c.963.785 1.6 1.041 1.6.643 0-.104-.585-.475-1.3-.824l-1.3-.634 1 .815m64.4 0c.963.785 1.6 1.041 1.6.643 0-.104-.585-.475-1.3-.824l-1.3-.634 1 .815m-103.6.974c0 .267 3.69 2.302 3.863 2.13.077-.078-.76-.632-1.861-1.231-1.101-.6-2.002-1.004-2.002-.899m87.411.797c1.718 1.17 6.327 3.488 5.389 2.71-.55-.457-1.127-.834-1.282-.839-.156-.005-1.199-.549-2.318-1.209-2.059-1.214-3.241-1.652-1.789-.662m-289.911.491c-.605.328-1.1.681-1.1.784 0 .386.632.144 1.6-.613 1.189-.93 1.011-.991-.5-.171m246.1.138c.963.785 1.6 1.041 1.6.643 0-.104-.585-.475-1.3-.824l-1.3-.634 1 .815m64.4-.003c.55.45 1.18.819 1.4.821.428.003-.295-.551-1.6-1.225-.531-.275-.464-.139.2.404m-61.6 1.588c.55.457 1.127.834 1.282.839.156.005 1.213.557 2.349 1.227 1.136.67 2.15 1.135 2.252 1.033.102-.103-.235-.404-.749-.671a481.623 481.623 0 01-3.534-1.871c-1.527-.814-2.187-1.044-1.6-.557m-300.1 1.877c-1.495.811-1.404 1.149.1.371.66-.341 1.2-.706 1.2-.81 0-.258-.043-.243-1.3.439m64.1.207c-.664.543-.731.679-.2.404 1.305-.674 2.028-1.228 1.6-1.225-.22.002-.85.371-1.4.821m283.6-.643c0 .107.9.65 2 1.207 2.515 1.275 2.621 1.016.15-.366-1.923-1.074-2.15-1.163-2.15-.841M559.4 754.8c-.66.437-1.02.792-.8.788.401-.006 2.576-1.565 2.2-1.576-.11-.004-.74.351-1.4.788m325 .022c1.033.704 3.6 2.003 3.6 1.82 0-.209-3.595-2.245-3.95-2.236-.138.003.02.19.35.416m-62.2 1.074c.618.651 9.895 5.742 10.096 5.541.098-.098-.413-.484-1.136-.858-.723-.374-1.865-.986-2.537-1.36-4.718-2.626-6.768-3.686-6.423-3.323m-246.7.733c-1.495.811-1.404 1.149.1.371.66-.341 1.2-.706 1.2-.81 0-.258-.043-.243-1.3.439m292.1-.439c0 .104.585.475 1.3.824l1.3.634-1-.815c-.963-.785-1.6-1.041-1.6-.643m-313.689 1.57c-2.095 1.245-2.427 1.703-.511.705 2.005-1.045 2.919-1.662 2.4-1.621-.22.017-1.07.43-1.889.916m-45.611.469c-1.495.811-1.404 1.149.1.371.66-.341 1.2-.706 1.2-.81 0-.258-.043-.243-1.3.439m276.1-.45c0 .11.54.48 1.2.821.66.341 1.2.531 1.2.421 0-.11-.54-.48-1.2-.821-.66-.341-1.2-.531-1.2-.421m88.4 1.388c.963.785 1.6 1.041 1.6.643 0-.104-.585-.475-1.3-.824l-1.3-.634 1 .815m-322.8.866l-1 .815 1.3-.634c.715-.349 1.3-.72 1.3-.824 0-.398-.637-.142-1.6.643m-46.1.596c-.605.328-1.1.681-1.1.784 0 .386.632.144 1.6-.613 1.189-.93 1.011-.991-.5-.171m64.4 0c-1.495.811-1.404 1.149.1.371.66-.341 1.2-.706 1.2-.81 0-.258-.043-.243-1.3.439m306.5-.47c0 .292 3.71 2.264 3.901 2.074.098-.099-.739-.644-1.861-1.213-1.122-.568-2.04-.956-2.04-.861m-373.7 2.07c-1.495.811-1.404 1.149.1.371.66-.341 1.2-.706 1.2-.81 0-.258-.043-.243-1.3.439m290.5-.45c0 .11.54.48 1.2.821.66.341 1.2.531 1.2.421 0-.11-.54-.48-1.2-.821-.66-.341-1.2-.531-1.2-.421m42 .588c.963.785 1.6 1.041 1.6.643 0-.104-.585-.475-1.3-.824l-1.3-.634 1 .815m46.4.8c.963.785 1.6 1.041 1.6.643 0-.104-.585-.475-1.3-.824l-1.3-.634 1 .815m-44.4.192c0 .292 3.71 2.264 3.901 2.074.098-.099-.739-.644-1.861-1.213-1.122-.568-2.04-.956-2.04-.861m-339 1.441c-.66.437-1.02.792-.8.788.401-.006 2.576-1.565 2.2-1.576-.11-.004-.74.351-1.4.788m44.9-.171c-.605.328-1.1.681-1.1.784 0 .386.632.144 1.6-.613 1.189-.93 1.011-.991-.5-.171m19.6 0c-1.495.811-1.404 1.149.1.371.66-.341 1.2-.706 1.2-.81 0-.258-.043-.243-1.3.439m235.7.135c.55.45 1.18.819 1.4.821.428.003-.295-.551-1.6-1.225-.531-.275-.464-.139.2.404m85.2-.626c0 .211 5.622 3.432 6.894 3.949 1.11.452.824.031-.394-.58-.605-.303-2.315-1.231-3.8-2.063-1.485-.832-2.7-1.42-2.7-1.306m-40.4 2.616c0 .245.172.446.382.446.211 0 1.313.548 2.449 1.218 1.136.67 2.152 1.133 2.256 1.028.105-.105-.592-.589-1.548-1.076-.957-.487-2.144-1.15-2.639-1.474-.577-.377-.9-.428-.9-.142m-350 .882c-.664.543-.731.679-.2.404 1.305-.674 2.028-1.228 1.6-1.225-.22.002-.85.371-1.4.821m42.7.993c-.605.328-1.1.681-1.1.784 0 .386.632.144 1.6-.613 1.189-.93 1.011-.991-.5-.171m-3.6 2.048c-1.044.581-1.837 1.12-1.76 1.196.16.161 3.86-1.859 3.86-2.107 0-.251-.057-.226-2.1.911m317.3-.325c.55.457 1.125.834 1.279.839.153.005 1.323.611 2.6 1.347 4.282 2.469 8.521 4.72 8.521 4.524 0-.106-1.215-.87-2.7-1.697-8.264-4.602-10.759-5.892-9.7-5.013m-39.6.868c1.387.941 2.178 1.215 1.2.416-.55-.45-1.18-.819-1.4-.821-.22-.002-.13.181.2.405m-284.675 3.311c-2.745 1.679-3.265 2.292-.725.854 2.615-1.48 3.67-2.192 3.189-2.154-.214.016-1.323.601-2.464 1.3m288.675-1.152c0 .11.54.48 1.2.821.66.341 1.2.531 1.2.421 0-.11-.54-.48-1.2-.821-.66-.341-1.2-.531-1.2-.421m-269.3 1.25c-1.495.811-1.404 1.149.1.371.66-.341 1.2-.706 1.2-.81 0-.258-.043-.243-1.3.439m317.7 2.761c0 .104.585.475 1.3.824l1.3.634-1-.815c-.963-.785-1.6-1.041-1.6-.643m2.8 1.603c0 .107.9.65 2 1.207 2.515 1.275 2.621 1.016.15-.366-1.923-1.074-2.15-1.163-2.15-.841m-350.1 1.236c-1.495.811-1.404 1.149.1.371.66-.341 1.2-.706 1.2-.81 0-.258-.043-.243-1.3.439m313.3 1.15c0 .11.54.48 1.2.821.66.341 1.2.531 1.2.421 0-.11-.54-.48-1.2-.821-.66-.341-1.2-.531-1.2-.421m42.803.911c.004.365 2.062 1.379 2.305 1.135.092-.091-.39-.454-1.071-.806-.68-.352-1.236-.5-1.234-.329M527 783.6c-.66.437-1.02.792-.8.788.401-.006 2.576-1.565 2.2-1.576-.11-.004-.74.351-1.4.788m-21.5 1.077c-1.044.581-1.837 1.12-1.76 1.196.16.161 3.86-1.859 3.86-2.107 0-.251-.057-.226-2.1.911m367.1-.771c.568.595 3.463 2.164 3.649 1.978.085-.085-.791-.659-1.947-1.275-1.156-.617-1.922-.933-1.702-.703m-39 1.314c1.387.941 2.178 1.215 1.2.416-.55-.45-1.18-.819-1.4-.821-.22-.002-.13.181.2.405m-332.867 2.099c-3.089 1.745-3.517 2.314-.533.707 2.135-1.149 3.488-2.061 2.98-2.007-.099.011-1.2.596-2.447 1.3M877 786.313c.22.226 1.12.816 2 1.311 4.145 2.33 6.6 3.608 6.6 3.435 0-.176-1.993-1.334-7-4.066-1.1-.601-1.82-.907-1.6-.68m-39.4 1.066c0 .11.54.48 1.2.821.66.341 1.2.531 1.2.421 0-.11-.54-.48-1.2-.821-.66-.341-1.2-.531-1.2-.421m-341.7 2.648c-.825.436-1.5.881-1.5.991 0 .109.72-.169 1.6-.618.88-.449 1.6-.903 1.6-1.008 0-.262-.003-.261-1.7.635m18.9.406l-1 .815 1.3-.634c.715-.349 1.3-.72 1.3-.824 0-.398-.637-.142-1.6.643m-22.778 1.779c-.758.535-1.568 1.042-1.8 1.126-.232.084-.277.307-.1.496.177.189.446.155.6-.076.153-.23.995-.9 1.871-1.488.876-.589 1.416-1.061 1.2-1.05-.216.01-1.013.457-1.771.992M886 791.341c0 .114.72.612 1.6 1.107.88.495 1.6 1.046 1.6 1.226 0 .179.18.326.4.326.847 0 .326-.64-1.303-1.6-2.065-1.217-2.297-1.324-2.297-1.059m-374.942 1.246c-.408.309-.678.737-.6.951.078.213.465-.045.861-.575.821-1.101.779-1.163-.261-.376M465 460h20v20h-20zm430 0h20v20h-20z" fill="#c87897"/>
    </g>
</svg>
